<svg width="20" height="20" viewBox="0 0 20 20" fill="none" xmlns="http://www.w3.org/2000/svg">
<path d="M18.0122 11.575L17.6372 11.3583C17.7205 10.9083 17.7622 10.45 17.7622 10C17.7622 9.55 17.7205 9.1 17.6372 8.64167L18.0122 8.425C19.2038 7.74167 19.6205 6.20833 18.9372 5.00833C18.6039 4.43333 18.0622 4.01667 17.4205 3.84167C16.7789 3.66667 16.1039 3.75833 15.5205 4.09167L15.1455 4.30833C14.4455 3.70833 13.6372 3.24167 12.7622 2.93333V2.5C12.7622 1.125 11.6372 0 10.2622 0C8.88718 0 7.76218 1.125 7.76218 2.5V2.93333C6.88718 3.24167 6.07885 3.70833 5.37885 4.30833L5.00385 4.09167C4.42885 3.75833 3.75385 3.675 3.10385 3.84167C2.46218 4.01667 1.92052 4.43333 1.58718 5.00833C0.903849 6.2 1.31218 7.73333 2.50385 8.425L2.87885 8.64167C2.79552 9.09167 2.75385 9.55 2.75385 10C2.75385 10.45 2.79552 10.9 2.87885 11.3583L2.50385 11.575C1.31218 12.2583 0.895516 13.7917 1.57885 14.9917C1.91218 15.5667 2.45385 15.9833 3.09552 16.1583C3.73718 16.3333 4.41218 16.2417 4.99552 15.9083L5.37052 15.6917C6.07052 16.2917 6.87885 16.7583 7.75385 17.0667V17.5C7.75385 18.875 8.87885 20 10.2538 20C11.6288 20 12.7538 18.875 12.7538 17.5V17.0667C13.6289 16.7583 14.4372 16.2917 15.1372 15.6917L15.5122 15.9083C16.0872 16.2417 16.7622 16.3333 17.4122 16.1583C18.0539 15.9833 18.5955 15.5667 18.9289 14.9917C19.6122 13.8 19.2038 12.2667 18.0122 11.575ZM15.8789 8.45833C16.0205 8.975 16.0955 9.5 16.0955 10.0083C16.0955 10.5167 16.0205 11.0333 15.8789 11.5583C15.7789 11.925 15.9372 12.3083 16.2705 12.5L17.1789 13.025C17.5788 13.2583 17.7122 13.7667 17.4872 14.1667C17.3789 14.3583 17.1955 14.5 16.9789 14.5583C16.7622 14.6167 16.5372 14.5917 16.3455 14.475L15.4372 13.95C15.1039 13.7583 14.6955 13.8167 14.4289 14.0917C13.6872 14.85 12.7539 15.3917 11.7205 15.6583C11.3539 15.75 11.0955 16.0833 11.0955 16.4667V17.5167C11.0955 17.975 10.7205 18.35 10.2622 18.35C9.80385 18.35 9.42885 17.975 9.42885 17.5167V16.4667C9.42885 16.0833 9.17052 15.7583 8.80385 15.6583C7.77052 15.3917 6.83718 14.85 6.09552 14.0917C5.93718 13.925 5.72052 13.8417 5.49552 13.8417C5.35385 13.8417 5.21218 13.875 5.07885 13.95L4.17052 14.475C3.97885 14.5833 3.75385 14.6167 3.53718 14.5583C3.32052 14.5 3.14552 14.3583 3.02885 14.1667C2.80385 13.7667 2.93718 13.2583 3.33718 13.025L4.24552 12.5C4.57885 12.3083 4.73718 11.925 4.63718 11.5583C4.49552 11.0417 4.42052 10.5167 4.42052 10.0083C4.42052 9.5 4.49552 8.98333 4.63718 8.45833C4.73718 8.09167 4.57885 7.70833 4.24552 7.51667L3.33718 6.99167C2.93718 6.75833 2.80385 6.25 3.02885 5.85C3.13718 5.65833 3.32052 5.51667 3.53718 5.45833C3.75385 5.4 3.97885 5.43333 4.17052 5.54167L5.07885 6.06667C5.41218 6.25833 5.82052 6.2 6.08718 5.925C6.82885 5.16667 7.76218 4.625 8.79552 4.35833C9.16218 4.26667 9.42052 3.93333 9.42052 3.55V2.5C9.42052 2.04167 9.79552 1.66667 10.2538 1.66667C10.7122 1.66667 11.0872 2.04167 11.0872 2.5V3.55C11.0872 3.93333 11.3455 4.25833 11.7122 4.35833C12.7455 4.625 13.6789 5.16667 14.4205 5.925C14.6872 6.2 15.1039 6.25833 15.4289 6.06667L16.3372 5.54167C16.5289 5.43333 16.7538 5.4 16.9705 5.45833C17.1872 5.51667 17.3622 5.65833 17.4789 5.85C17.7039 6.25 17.5705 6.75833 17.1705 6.99167L16.2622 7.51667C15.9289 7.70833 15.7705 8.09167 15.8705 8.45833H15.8789ZM11.7455 6.84167L10.4122 13.5083C10.3372 13.9083 9.98718 14.175 9.59552 14.175C9.54552 14.175 9.48718 14.175 9.42885 14.1583C8.97885 14.0667 8.68718 13.6333 8.77885 13.175L10.1122 6.50833C10.2038 6.05833 10.6372 5.76667 11.0955 5.85833C11.5455 5.95 11.8372 6.38333 11.7455 6.84167ZM7.93718 9.05L6.92885 10.0583L7.93718 11.05C8.26218 11.375 8.26218 11.9 7.93718 12.225C7.77052 12.3917 7.56218 12.4667 7.34552 12.4667C7.12885 12.4667 6.92052 12.3833 6.75385 12.225L5.74552 11.2167C5.09552 10.5667 5.09552 9.51667 5.74552 8.875L6.75385 7.86667C7.07885 7.54167 7.60385 7.54167 7.92885 7.86667C8.25385 8.19167 8.25385 8.71667 7.92885 9.04167L7.93718 9.05ZM14.7789 8.88333C15.4289 9.53333 15.4289 10.5833 14.7789 11.225L13.7705 12.2333C13.6039 12.4 13.3955 12.475 13.1789 12.475C12.9622 12.475 12.7539 12.3917 12.5872 12.2333C12.2622 11.9083 12.2622 11.3833 12.5872 11.0583L13.5955 10.05L12.5872 9.05C12.2622 8.725 12.2622 8.2 12.5872 7.875C12.9122 7.55 13.4372 7.55 13.7622 7.875L14.7705 8.88333H14.7789Z" fill="#2563EB"/>
</svg>
