<svg width="16" height="14" viewBox="0 0 16 14" fill="none" xmlns="http://www.w3.org/2000/svg">
<path d="M8 13.04C2.034 12.8773 0.271333 7.61129 0 6.99996C0.268 6.39196 2.03667 1.11996 8 0.959961C13.966 1.12263 15.7287 6.38796 16.0007 6.99996C15.732 7.60796 13.9633 12.88 8 13.04ZM2.156 6.99996C2.652 8.04863 4.38333 11.04 8 11.04C11.6167 11.04 13.3473 8.04929 13.844 6.99996C13.348 5.95063 11.6167 2.95996 8 2.95996C4.38333 2.95996 2.65267 5.95063 2.156 6.99996ZM8 3.66663C6.15933 3.66663 4.66667 5.15929 4.66667 6.99996C4.66667 7.21663 4.69067 7.42663 4.73067 7.63129L6.30533 6.05663L7.30533 7.05663L8.16733 6.19463L7.30533 5.33263H9.59133C9.802 5.33263 9.972 5.50329 9.972 5.71329V7.99929L9.11 7.13729L7.30533 8.94196L6.30533 7.94196L5.30333 8.94396C5.90867 9.78196 6.888 10.3326 8.00067 10.3326C9.84133 10.3326 11.334 8.83996 11.334 6.99929C11.334 5.15863 9.84133 3.66596 8.00067 3.66596L8 3.66663Z" fill="#005197"/>
</svg>
