<svg width="24" height="25" viewBox="0 0 24 25" fill="none" xmlns="http://www.w3.org/2000/svg">
<path d="M17.163 13.5C17.597 14.941 18.92 16 20.5 16C22.43 16 24 14.43 24 12.5C24 10.57 22.43 9 20.5 9C18.92 9 17.597 10.059 17.163 11.5H13V7C13 5.897 13.897 5 15 5H17.163C17.597 6.441 18.92 7.5 20.5 7.5C22.43 7.5 24 5.93 24 4C24 2.07 22.43 0.5 20.5 0.5C18.92 0.5 17.597 1.559 17.163 3H15C12.794 3 11 4.794 11 7V11.5H6.837C6.403 10.059 5.08 9 3.5 9C1.57 9 0 10.57 0 12.5C0 14.43 1.57 16 3.5 16C5.08 16 6.403 14.941 6.837 13.5H11V18C11 20.206 12.794 22 15 22H17.163C17.597 23.441 18.92 24.5 20.5 24.5C22.43 24.5 24 22.93 24 21C24 19.07 22.43 17.5 20.5 17.5C18.92 17.5 17.597 18.559 17.163 20H15C13.897 20 13 19.103 13 18V13.5H17.163Z" fill="white"/>
</svg>
