<svg width="20" height="20" viewBox="0 0 20 20" fill="none" xmlns="http://www.w3.org/2000/svg">
<g clip-path="url(#clip0_547_744)">
<path d="M18.3333 11.7258L20 10.0592V18.2117C20.0208 19.1758 19.1683 20.0208 18.21 20.0025C17.8633 20.0025 17.5175 19.9017 17.2183 19.7025L13.915 17.4992H9.1675C6.87 17.4992 5.00083 15.63 5.00083 13.3325C5.00083 12.8717 5.37417 12.4992 5.83417 12.4992C6.29417 12.4992 6.6675 12.8717 6.6675 13.3325C6.6675 14.7108 7.78917 15.8325 9.1675 15.8325H14.1675C14.3317 15.8325 14.4933 15.8817 14.63 15.9725L18.1425 18.315C18.1583 18.325 18.2025 18.3575 18.2692 18.3208C18.3342 18.2858 18.3342 18.23 18.3342 18.2117V11.725L18.3333 11.7258ZM12.8942 5H13.2742L14.5533 3.72083C14.7008 3.57333 14.865 3.45417 15.0275 3.33333H12.8933C12.44 3.33333 12.07 3.69833 12.0675 4.15083V4.1725C12.065 4.62917 12.4367 4.99917 12.8933 4.99917L12.8942 5ZM5.41667 10.8333H2.08333C0.9325 10.8333 0 9.90083 0 8.75V5.41667C0 2.425 2.425 0 5.41667 0C8.40833 0 10.8333 2.425 10.8333 5.41667C10.8333 8.40833 8.40833 10.8333 5.41667 10.8333ZM4.58333 4.16667C4.58333 3.92 4.69167 3.68667 4.88167 3.5275C5.07333 3.36583 5.32083 3.30167 5.575 3.34667C5.90083 3.40417 6.17917 3.68167 6.23667 4.0075C6.31417 4.45083 6.06 4.76417 5.81833 4.89667C5.26 5.20417 4.85167 5.63333 4.8075 5.68083C4.495 6.01667 4.51333 6.54083 4.8475 6.855C5.0075 7.00583 5.2125 7.08083 5.4175 7.08083C5.63917 7.08083 5.86083 6.99333 6.025 6.82C6.0275 6.8175 6.29333 6.53833 6.62333 6.35667C7.56 5.84 8.06417 4.78 7.87833 3.71917C7.70083 2.71 6.87167 1.88167 5.86333 1.705C5.125 1.575 4.37667 1.77417 3.81 2.25083C3.2425 2.7275 2.9175 3.425 2.9175 4.16583C2.9175 4.62583 3.29083 4.99917 3.75083 4.99917C4.21083 4.99917 4.58417 4.62583 4.58417 4.16583L4.58333 4.16667ZM5.41667 9.16667C5.87667 9.16667 6.25 8.79333 6.25 8.33333C6.25 7.87333 5.87667 7.5 5.41667 7.5C4.95667 7.5 4.58333 7.87333 4.58333 8.33333C4.58333 8.79333 4.95667 9.16667 5.41667 9.16667ZM10 12.0117C10 11.1217 10.3467 10.2842 10.9767 9.655L15.7325 4.89917C16.7075 3.92417 18.2925 3.92417 19.2675 4.89917C20.2375 5.83 20.2375 7.50417 19.2675 8.435L14.5117 13.1908C13.8817 13.8208 13.045 14.1675 12.155 14.1675H10.8333C10.3733 14.1675 10 13.795 10 13.3342V12.0125V12.0117ZM11.6667 12.5H12.155C12.6 12.5 13.0183 12.3267 13.3333 12.0117L18.0892 7.25583C18.4125 6.94583 18.4125 6.3875 18.0892 6.0775C17.7633 5.75167 17.2367 5.7525 16.9108 6.0775L12.155 10.8333C11.84 11.1483 11.6667 11.5667 11.6667 12.0117V12.5Z" fill="#005197"/>
</g>
<defs>
<clipPath id="clip0_547_744">
<rect width="20" height="20" fill="white"/>
</clipPath>
</defs>
</svg>
