<svg width="16" height="17" viewBox="0 0 16 17" fill="none" xmlns="http://www.w3.org/2000/svg">
<path d="M16 4.16666C15.9978 2.14253 14.3575 0.502219 12.3333 0.5H3.66666C1.64253 0.502219 0.00221875 2.14253 0 4.16666V4.83331C0.00025 5.44238 0.239656 6.027 0.666656 6.46131V12.8333C0.668875 14.8575 2.30922 16.4978 4.33334 16.5H11.6667C13.6908 16.4978 15.3312 14.8575 15.3333 12.8333V6.46134C15.7604 6.02703 15.9998 5.44241 16 4.83334V4.16666ZM2 4.16666C2 3.24619 2.74619 2.5 3.66666 2.5H12.3333C13.2538 2.5 14 3.24619 14 4.16666V4.83331C14 5.01741 13.8508 5.16666 13.6667 5.16666H2.33334C2.14925 5.16666 2 5.01741 2 4.83331V4.16666ZM13.3333 12.8333C13.3333 13.7538 12.5872 14.5 11.6667 14.5H4.33334C3.41288 14.5 2.66669 13.7538 2.66669 12.8333V7.16666H13.3333V12.8333Z" fill="#DC2626"/>
<path d="M6.33334 8.5H9.66669C10.219 8.5 10.6667 8.94772 10.6667 9.5C10.6667 10.0523 10.219 10.5 9.66669 10.5H6.33334C5.78106 10.5 5.33334 10.0523 5.33334 9.5C5.33334 8.94772 5.78106 8.5 6.33334 8.5Z" fill="#DC2626"/>
</svg>
