<svg width="20" height="20" viewBox="0 0 20 20" fill="none" xmlns="http://www.w3.org/2000/svg">
<g clip-path="url(#clip0_547_738)">
<path d="M5.83333 5.8335C5.83333 5.3735 6.76583 5.00016 7.91667 5.00016C9.0675 5.00016 10 5.3735 10 5.8335C10 6.2935 9.0675 6.66683 7.91667 6.66683C6.76583 6.66683 5.83333 6.2935 5.83333 5.8335ZM20 12.9168V15.4168C20 17.4843 18.3175 19.1668 16.25 19.1668H7.8175C2.35083 19.1668 0 16.7602 0 14.4052V5.67516C0 5.64016 0.0158333 5.61016 0.02 5.576C0.226667 2.89766 3.615 0.833496 7.91667 0.833496C12.3558 0.833496 15.8333 3.03016 15.8333 5.8335V9.16683H16.25C18.3175 9.16683 20 10.8493 20 12.9168ZM1.66667 5.8335C1.66667 7.64016 4.52917 9.16683 7.91667 9.16683C11.3042 9.16683 14.1667 7.64016 14.1667 5.8335C14.1667 4.02683 11.3042 2.50016 7.91667 2.50016C4.52917 2.50016 1.66667 4.02683 1.66667 5.8335ZM18.3333 12.9168C18.3333 11.7677 17.3992 10.8335 16.25 10.8335H7.91667C5.34583 10.8335 3.10417 10.0943 1.66667 8.93016V14.4052C1.66667 15.5835 3.305 16.8685 5.83333 17.3252V14.166C5.83333 13.7052 6.20583 13.3327 6.66667 13.3327C7.1275 13.3327 7.5 13.7052 7.5 14.166V17.4902C7.60583 17.4927 7.70917 17.4993 7.8175 17.4993H10V14.166C10 13.7052 10.3725 13.3327 10.8333 13.3327C11.2942 13.3327 11.6667 13.7052 11.6667 14.166V17.4993H14.1667V14.166C14.1667 13.7052 14.5392 13.3327 15 13.3327C15.4608 13.3327 15.8333 13.7052 15.8333 14.166V17.4993H16.25C17.3992 17.4993 18.3333 16.5652 18.3333 15.416V12.916V12.9168Z" fill="#16A34A"/>
</g>
<defs>
<clipPath id="clip0_547_738">
<rect width="20" height="20" fill="white"/>
</clipPath>
</defs>
</svg>
