<svg width="20" height="20" viewBox="0 0 20 20" fill="none" xmlns="http://www.w3.org/2000/svg">
<path d="M11.6665 5.83333V0.383333C12.4374 0.674446 13.1376 1.12609 13.7207 1.70833L16.624 4.61333C17.2069 5.19573 17.6589 5.89575 17.9498 6.66667H12.4998C12.2788 6.66667 12.0669 6.57887 11.9106 6.42259C11.7543 6.26631 11.6665 6.05435 11.6665 5.83333ZM18.3332 8.7375V15.8333C18.3318 16.938 17.8924 17.997 17.1113 18.7782C16.3302 19.5593 15.2712 19.9987 14.1665 20H5.83317C4.72851 19.9987 3.66947 19.5593 2.88835 18.7782C2.10724 17.997 1.66783 16.938 1.6665 15.8333V4.16667C1.66783 3.062 2.10724 2.00296 2.88835 1.22185C3.66947 0.440735 4.72851 0.00132321 5.83317 0L9.59567 0C9.7315 0 9.86567 0.0108333 9.99984 0.02V5.83333C9.99984 6.49637 10.2632 7.13226 10.7321 7.6011C11.2009 8.06994 11.8368 8.33333 12.4998 8.33333H18.3132C18.3223 8.4675 18.3332 8.60167 18.3332 8.7375ZM11.6665 15.8333C11.6665 15.6123 11.5787 15.4004 11.4224 15.2441C11.2661 15.0878 11.0542 15 10.8332 15H6.6665C6.44549 15 6.23353 15.0878 6.07725 15.2441C5.92097 15.4004 5.83317 15.6123 5.83317 15.8333C5.83317 16.0543 5.92097 16.2663 6.07725 16.4226C6.23353 16.5789 6.44549 16.6667 6.6665 16.6667H10.8332C11.0542 16.6667 11.2661 16.5789 11.4224 16.4226C11.5787 16.2663 11.6665 16.0543 11.6665 15.8333ZM14.1665 12.5C14.1665 12.279 14.0787 12.067 13.9224 11.9107C13.7661 11.7545 13.5542 11.6667 13.3332 11.6667H6.6665C6.44549 11.6667 6.23353 11.7545 6.07725 11.9107C5.92097 12.067 5.83317 12.279 5.83317 12.5C5.83317 12.721 5.92097 12.933 6.07725 13.0893C6.23353 13.2455 6.44549 13.3333 6.6665 13.3333H13.3332C13.5542 13.3333 13.7661 13.2455 13.9224 13.0893C14.0787 12.933 14.1665 12.721 14.1665 12.5Z" fill="#2BA95A"/>
</svg>
