<svg width="30" height="30" viewBox="0 0 30 30" fill="none" xmlns="http://www.w3.org/2000/svg">
<path d="M14.7931 15.2413C14.5652 14.9747 14.2414 14.8086 13.8919 14.7791L9.85833 14.4215C9.68284 14.4067 9.5086 14.4619 9.37368 14.5751C9.23876 14.6883 9.15412 14.8503 9.13825 15.0257C9.13022 15.1134 9.13963 15.2017 9.16592 15.2857C9.19221 15.3697 9.23487 15.4477 9.29144 15.5151C9.34801 15.5825 9.41737 15.638 9.49552 15.6785C9.57367 15.719 9.65905 15.7436 9.74676 15.7509L12.8325 16.0162L7.72555 20.3014C7.5901 20.4151 7.50535 20.5779 7.48994 20.754C7.47453 20.9301 7.52973 21.1052 7.64338 21.2406C7.75703 21.3761 7.91983 21.4608 8.09597 21.4762C8.27211 21.4916 8.44715 21.4365 8.5826 21.3228L13.6896 17.0375L13.4192 20.1276C13.4032 20.3038 13.4578 20.4791 13.571 20.615C13.6843 20.751 13.8468 20.8363 14.023 20.8524C14.1992 20.8684 14.3745 20.8138 14.5105 20.7006C14.6464 20.5873 14.7318 20.4247 14.7478 20.2486L15.096 16.2142C15.1279 15.8626 15.0189 15.5127 14.7931 15.2413Z" fill="#005197" fill-opacity="0.7"/>
<path d="M15.6659 14.7587C15.8938 15.0253 16.2176 15.1914 16.5671 15.2209L20.6006 15.5785C20.7761 15.5933 20.9504 15.5381 21.0853 15.4249C21.2202 15.3117 21.3049 15.1497 21.3207 14.9743C21.3288 14.8866 21.3194 14.7983 21.2931 14.7143C21.2668 14.6303 21.2241 14.5523 21.1675 14.4849C21.111 14.4175 21.0416 14.362 20.9635 14.3215C20.8853 14.281 20.7999 14.2564 20.7122 14.2491L17.6265 13.9838L22.7334 9.69859C22.8689 9.58494 22.9536 9.42214 22.969 9.246C22.9845 9.06986 22.9293 8.89482 22.8156 8.75937C22.702 8.62393 22.5392 8.53918 22.363 8.52377C22.1869 8.50836 22.0118 8.56355 21.8764 8.6772L16.7694 12.9625L17.0398 9.87241C17.0558 9.69623 17.0012 9.52089 16.888 9.38497C16.7747 9.24905 16.6121 9.16368 16.436 9.14763C16.2598 9.13159 16.0844 9.1862 15.9485 9.29943C15.8126 9.41267 15.7272 9.57526 15.7112 9.75144L15.3629 13.7858C15.3311 14.1374 15.4401 14.4873 15.6659 14.7587Z" fill="#005197" fill-opacity="0.7"/>
</svg>
