<svg width="20" height="20" viewBox="0 0 20 20" fill="none" xmlns="http://www.w3.org/2000/svg">
<path d="M14.9748 12.9432C14.9298 10.4773 12.7031 8.45232 10.0089 8.42898C9.41893 8.42482 8.8681 8.19482 8.4956 7.79898C8.19226 7.47565 8.03727 7.06982 8.0606 6.66148C8.12227 5.60315 9.04977 4.63648 9.99477 4.63232C10.7614 4.63565 11.5548 5.28565 11.8389 6.14398C12.0556 6.79898 12.7614 7.15148 13.4189 6.93732C14.0739 6.71982 14.4289 6.01315 14.2123 5.35732C13.7306 3.90315 12.5956 2.78315 11.2506 2.33982V2.08398C11.2506 1.39315 10.6914 0.833984 10.0006 0.833984C9.30977 0.833984 8.7506 1.39315 8.7506 2.08398V2.34065C7.03477 2.91315 5.6781 4.59648 5.56477 6.51898C5.5031 7.62148 5.89727 8.68398 6.67393 9.51065C7.51227 10.4032 8.72226 10.9207 9.98976 10.9298C11.3173 10.9415 12.4556 11.884 12.4756 12.9832C12.4831 13.5132 12.2156 14.1073 11.7606 14.5723C11.2706 15.0732 10.6248 15.3632 10.0106 15.369C9.3756 15.364 8.72976 15.074 8.23976 14.5723C7.78476 14.1073 7.51726 13.5132 7.52476 12.9832C7.53393 12.2932 6.98227 11.7257 6.29143 11.7165C5.57893 11.6773 5.03393 12.259 5.02477 12.9498C5.00893 14.1482 5.52893 15.3765 6.4531 16.3207C7.09643 16.9782 7.89393 17.449 8.74977 17.6882V17.9173C8.74977 18.6082 9.30893 19.1673 9.99977 19.1673C10.6906 19.1673 11.2498 18.6082 11.2498 17.9173V17.6898C12.1014 17.4507 12.9014 16.9798 13.5464 16.3207C14.4698 15.3765 14.9906 14.1482 14.9739 12.944L14.9748 12.9432Z" fill="#EA580C"/>
</svg>
