<svg width="18" height="21" viewBox="0 0 18 21" fill="none" xmlns="http://www.w3.org/2000/svg">
<path d="M10.6667 6.33333V0.883333C11.4375 1.17445 12.1377 1.62609 12.7208 2.20833L15.6242 5.11333C16.2071 5.69573 16.6591 6.39575 16.95 7.16667H11.5C11.279 7.16667 11.067 7.07887 10.9107 6.92259C10.7545 6.76631 10.6667 6.55435 10.6667 6.33333ZM17.3333 9.2375V16.3333C17.332 17.438 16.8926 18.497 16.1115 19.2782C15.3304 20.0593 14.2713 20.4987 13.1667 20.5H4.83333C3.72867 20.4987 2.66963 20.0593 1.88852 19.2782C1.1074 18.497 0.66799 17.438 0.666667 16.3333V4.66667C0.66799 3.562 1.1074 2.50296 1.88852 1.72185C2.66963 0.940735 3.72867 0.501323 4.83333 0.5L8.59583 0.5C8.73167 0.5 8.86583 0.510833 9 0.52V6.33333C9 6.99637 9.26339 7.63226 9.73223 8.1011C10.2011 8.56994 10.837 8.83333 11.5 8.83333H17.3133C17.3225 8.9675 17.3333 9.10167 17.3333 9.2375ZM10.1783 14.6667L11.6725 13.1725C11.8243 13.0153 11.9083 12.8048 11.9064 12.5863C11.9045 12.3678 11.8169 12.1588 11.6623 12.0043C11.5078 11.8498 11.2988 11.7622 11.0803 11.7603C10.8618 11.7584 10.6513 11.8424 10.4942 11.9942L9 13.4883L7.50583 11.9942C7.34866 11.8424 7.13816 11.7584 6.91967 11.7603C6.70117 11.7622 6.49216 11.8498 6.33765 12.0043C6.18314 12.1588 6.0955 12.3678 6.0936 12.5863C6.09171 12.8048 6.1757 13.0153 6.3275 13.1725L7.82167 14.6667L6.3275 16.1608C6.24791 16.2377 6.18442 16.3297 6.14075 16.4313C6.09707 16.533 6.07409 16.6423 6.07312 16.753C6.07216 16.8636 6.09325 16.9734 6.13515 17.0758C6.17705 17.1782 6.23893 17.2713 6.31717 17.3495C6.39541 17.4277 6.48846 17.4896 6.59087 17.5315C6.69328 17.5734 6.80302 17.5945 6.91367 17.5935C7.02432 17.5926 7.13367 17.5696 7.23534 17.5259C7.33701 17.4822 7.42896 17.4188 7.50583 17.3392L9 15.845L10.4942 17.3392C10.6513 17.491 10.8618 17.575 11.0803 17.5731C11.2988 17.5712 11.5078 17.4835 11.6623 17.329C11.8169 17.1745 11.9045 16.9655 11.9064 16.747C11.9083 16.5285 11.8243 16.318 11.6725 16.1608L10.1783 14.6667Z" fill="#FF0000"/>
</svg>
