<svg width="18" height="20" viewBox="0 0 18 20" fill="none" xmlns="http://www.w3.org/2000/svg">
<path d="M10.6667 5.83333V0.383333C11.4375 0.674446 12.1377 1.12609 12.7208 1.70833L15.6242 4.61333C16.2071 5.19573 16.6591 5.89575 16.95 6.66667H11.5C11.279 6.66667 11.067 6.57887 10.9107 6.42259C10.7545 6.26631 10.6667 6.05435 10.6667 5.83333ZM17.3333 8.7375V15.8333C17.332 16.938 16.8926 17.997 16.1115 18.7782C15.3304 19.5593 14.2713 19.9987 13.1667 20H4.83333C3.72867 19.9987 2.66963 19.5593 1.88851 18.7782C1.1074 17.997 0.667987 16.938 0.666664 15.8333V4.16667C0.667987 3.062 1.1074 2.00296 1.88851 1.22185C2.66963 0.440735 3.72867 0.00132321 4.83333 0L8.59583 0C8.73166 0 8.86583 0.0108333 9 0.02V5.83333C9 6.49637 9.26339 7.13226 9.73223 7.6011C10.2011 8.06994 10.837 8.33333 11.5 8.33333H17.3133C17.3225 8.4675 17.3333 8.60167 17.3333 8.7375ZM12.9367 11.9258C12.7843 11.7659 12.5747 11.673 12.354 11.6676C12.1332 11.6621 11.9192 11.7445 11.7592 11.8967L8.75916 14.7558C8.679 14.8365 8.58319 14.8998 8.47762 14.9421C8.37205 14.9843 8.25895 15.0045 8.1453 15.0013C8.03164 14.9982 7.91982 14.9719 7.81673 14.9239C7.71364 14.876 7.62144 14.8074 7.54583 14.7225L6.22166 13.5442C6.13992 13.4713 6.04461 13.4152 5.9412 13.3792C5.83778 13.3431 5.72828 13.3278 5.61893 13.334C5.39811 13.3467 5.19136 13.4466 5.04416 13.6117C4.97128 13.6934 4.91521 13.7887 4.87916 13.8921C4.84311 13.9956 4.82778 14.1051 4.83405 14.2144C4.8467 14.4352 4.94657 14.642 5.11166 14.7892L6.39833 15.9342C6.86473 16.4007 7.49659 16.6639 8.15625 16.6666C8.8159 16.6692 9.44987 16.4111 9.92 15.9483L12.9075 13.1033C13.0674 12.951 13.1603 12.7414 13.1658 12.5206C13.1712 12.2998 13.0888 12.0859 12.9367 11.9258Z" fill="#16A34A"/>
</svg>
