<svg width="16" height="16" viewBox="0 0 16 16" fill="none" xmlns="http://www.w3.org/2000/svg">
<path d="M11.9869 6.91725L8.00026 6.11992V2.07125C8.00026 1.06058 7.28292 0.18125 6.33159 0.0265833C5.74492 -0.0680833 5.15292 0.0945833 4.70559 0.475917C4.25759 0.856583 4.00025 1.41192 4.00025 1.99992V9.71058L3.36359 9.20458C2.55825 8.45258 1.29225 8.49592 0.540255 9.29992C-0.213078 10.1053 -0.171078 11.3733 0.626255 12.1206L3.09959 14.5052C4.09892 15.4686 5.41426 15.9993 6.80226 15.9993H11.3343C13.1723 15.9993 14.6676 14.5039 14.6676 12.6659V10.1853C14.6676 8.60192 13.5409 7.22658 11.9876 6.91658L11.9869 6.91725ZM13.3336 12.6666C13.3336 13.7693 12.4363 14.6666 11.3336 14.6666H6.80159C5.76025 14.6666 4.77426 14.2686 4.02492 13.5459L1.54425 11.1546C1.27625 10.9026 1.26159 10.4793 1.51359 10.2106C1.63492 10.0813 1.79959 10.0059 1.97625 10.0006C1.98425 10.0006 1.99159 10.0006 1.99959 10.0006C2.16825 10.0006 2.33025 10.0653 2.49225 10.2139L4.25092 11.6139C4.45159 11.7732 4.72492 11.8059 4.95625 11.6926C5.18692 11.5819 5.33292 11.3479 5.33292 11.0926V1.99992C5.33292 1.80392 5.41892 1.61858 5.56826 1.49125C5.72026 1.36258 5.91492 1.30925 6.11625 1.34258C6.42492 1.39258 6.66625 1.71258 6.66625 2.07125V6.66658C6.66625 6.98458 6.89092 7.25792 7.20226 7.31992L11.7249 8.22392C12.6563 8.40992 13.3329 9.23592 13.3329 10.1853V12.6659L13.3336 12.6666ZM16.0003 2.66658C16.0003 3.07792 15.8403 3.46458 15.5483 3.75592L14.1669 5.13792C14.0369 5.26792 13.8663 5.33325 13.6956 5.33325C13.5249 5.33325 13.3543 5.26792 13.2243 5.13792C12.9636 4.87725 12.9636 4.45592 13.2243 4.19525L14.0856 3.33325H10.0003C9.63159 3.33325 9.33359 3.03525 9.33359 2.66658C9.33359 2.29792 9.63159 1.99992 10.0003 1.99992H14.0856L13.2243 1.13792C12.9636 0.87725 12.9636 0.455917 13.2243 0.19525C13.4849 -0.0654167 13.9063 -0.0654167 14.1669 0.19525L15.5489 1.57792C15.8403 1.86858 16.0003 2.25525 16.0003 2.66658Z" fill="black" fill-opacity="0.45"/>
</svg>
