<svg width="20" height="21" viewBox="0 0 20 21" fill="none" xmlns="http://www.w3.org/2000/svg">
<path d="M8.57333 9.7226C10.0358 9.44094 11.525 10.4551 11.6567 11.9384C11.7883 13.4218 10.6233 14.6668 9.16667 14.6668H5.83333C5.26583 14.6668 4.86417 14.1201 5.0325 13.5776C5.44833 12.2376 6.64583 10.0934 8.57333 9.7226ZM16.6667 10.5001C16.2067 10.5001 15.8333 10.8726 15.8333 11.3334V16.3334C15.8333 17.7118 14.7117 18.8334 13.3333 18.8334H4.16667C2.78833 18.8334 1.66667 17.7118 1.66667 16.3334V7.16677C1.66667 5.78844 2.78833 4.66677 4.16667 4.66677H10C10.46 4.66677 10.8333 4.29427 10.8333 3.83344C10.8333 3.3726 10.46 3.0001 10 3.0001H4.16667C1.86917 3.0001 0 4.86927 0 7.16677V16.3334C0 18.6309 1.86917 20.5001 4.16667 20.5001H13.3333C15.6308 20.5001 17.5 18.6309 17.5 16.3334V11.3334C17.5 10.8726 17.1267 10.5001 16.6667 10.5001ZM19.2825 1.21927C18.325 0.260938 16.7725 0.260104 15.8142 1.2176C15.7817 1.2501 10.2075 7.28427 10.2075 7.28427C9.83083 7.70594 9.98833 8.35927 10.505 8.58844C10.5108 8.59094 10.5167 8.59344 10.5225 8.59594C10.8442 8.7401 11.2208 8.6526 11.455 8.38927L16.9642 2.4251C17.2542 2.10094 17.7525 2.07344 18.0758 2.36344C18.0867 2.37344 18.0967 2.3826 18.1075 2.39344C18.415 2.7001 18.415 3.1976 18.1083 3.5051L18.1075 3.50594L12.375 9.0776C12.0992 9.35344 12.06 9.78094 12.2725 10.1084C12.2758 10.1134 12.2792 10.1184 12.2817 10.1226C12.5642 10.5634 13.18 10.6276 13.55 10.2576L19.2817 4.68677C20.2383 3.72844 20.2383 2.17594 19.2817 1.2176L19.2825 1.21927Z" fill="white"/>
</svg>
