<svg width="20" height="20" viewBox="0 0 20 20" fill="none" xmlns="http://www.w3.org/2000/svg">
<path d="M8.57333 9.2226C10.0358 8.94094 11.525 9.9551 11.6567 11.4384C11.7883 12.9218 10.6233 14.1668 9.16667 14.1668H5.83333C5.26583 14.1668 4.86417 13.6201 5.0325 13.0776C5.44833 11.7376 6.64583 9.59344 8.57333 9.2226ZM16.6667 10.0001C16.2067 10.0001 15.8333 10.3726 15.8333 10.8334V15.8334C15.8333 17.2118 14.7117 18.3334 13.3333 18.3334H4.16667C2.78833 18.3334 1.66667 17.2118 1.66667 15.8334V6.66677C1.66667 5.28844 2.78833 4.16677 4.16667 4.16677H10C10.46 4.16677 10.8333 3.79427 10.8333 3.33344C10.8333 2.8726 10.46 2.5001 10 2.5001H4.16667C1.86917 2.5001 0 4.36927 0 6.66677V15.8334C0 18.1309 1.86917 20.0001 4.16667 20.0001H13.3333C15.6308 20.0001 17.5 18.1309 17.5 15.8334V10.8334C17.5 10.3726 17.1267 10.0001 16.6667 10.0001ZM19.2825 0.719271C18.325 -0.239062 16.7725 -0.239896 15.8142 0.717604C15.7817 0.750104 10.2075 6.78427 10.2075 6.78427C9.83083 7.20594 9.98833 7.85927 10.505 8.08844C10.5108 8.09094 10.5167 8.09344 10.5225 8.09594C10.8442 8.2401 11.2208 8.1526 11.455 7.88927L16.9642 1.9251C17.2542 1.60094 17.7525 1.57344 18.0758 1.86344C18.0867 1.87344 18.0967 1.8826 18.1075 1.89344C18.415 2.2001 18.415 2.6976 18.1083 3.0051L18.1075 3.00594L12.375 8.5776C12.0992 8.85344 12.06 9.28094 12.2725 9.60844C12.2758 9.61344 12.2792 9.61844 12.2817 9.6226C12.5642 10.0634 13.18 10.1276 13.55 9.7576L19.2817 4.18677C20.2383 3.22844 20.2383 1.67594 19.2817 0.717604L19.2825 0.719271Z" fill="#005197"/>
</svg>
