<svg width="16" height="17" viewBox="0 0 16 17" fill="none" xmlns="http://www.w3.org/2000/svg">
<path d="M6.85895 7.87804C8.029 7.65271 9.22038 8.46404 9.32572 9.6507C9.43106 10.8374 8.49902 11.8334 7.33364 11.8334H4.66686C4.21284 11.8334 3.8915 11.396 4.02617 10.962C4.35885 9.89003 5.31689 8.17471 6.85895 7.87804ZM13.3339 8.50004C12.9659 8.50004 12.6672 8.79804 12.6672 9.1667V13.1667C12.6672 14.2693 11.7698 15.1667 10.6671 15.1667H3.33347C2.23076 15.1667 1.33339 14.2693 1.33339 13.1667V5.83339C1.33339 4.73073 2.23076 3.8334 3.33347 3.8334H8.00033C8.36835 3.8334 8.66703 3.5354 8.66703 3.16674C8.66703 2.79807 8.36835 2.50007 8.00033 2.50007H3.33347C1.4954 2.50007 0 3.9954 0 5.83339V13.1667C0 15.0047 1.4954 16.5 3.33347 16.5H10.6671C12.5052 16.5 14.0006 15.0047 14.0006 13.1667V9.1667C14.0006 8.79804 13.7019 8.50004 13.3339 8.50004ZM15.4266 1.07541C14.6606 0.308751 13.4186 0.308085 12.6519 1.07408C12.6259 1.10008 8.16634 5.92739 8.16634 5.92739C7.86499 6.26472 7.991 6.78738 8.40435 6.97072C8.40902 6.97272 8.41368 6.97472 8.41835 6.97672C8.67569 7.09205 8.97704 7.02205 9.16438 6.81138L13.5719 2.04008C13.8039 1.78074 14.2026 1.75874 14.4613 1.99074C14.4699 1.99874 14.4779 2.00608 14.4866 2.01474C14.7326 2.26007 14.7326 2.65807 14.4873 2.90407L14.4866 2.90474L9.90041 7.36205C9.67974 7.58271 9.6484 7.92471 9.81841 8.18671C9.82108 8.19071 9.82374 8.19471 9.82574 8.19804C10.0518 8.55071 10.5444 8.60204 10.8405 8.30604L15.426 3.8494C16.1913 3.08274 16.1913 1.84074 15.426 1.07408L15.4266 1.07541Z" fill="white"/>
</svg>
