<svg width="32" height="31" viewBox="0 0 32 31" fill="none" xmlns="http://www.w3.org/2000/svg">
<path d="M8.30062 21.9597C8.52856 22.2262 8.85236 22.3923 9.20187 22.4218L13.2354 22.7794C13.4109 22.7942 13.5852 22.739 13.7201 22.6258C13.855 22.5126 13.9396 22.3506 13.9555 22.1752C13.9635 22.0876 13.9541 21.9992 13.9278 21.9152C13.9015 21.8312 13.8589 21.7533 13.8023 21.6858C13.7457 21.6184 13.6764 21.5629 13.5982 21.5224C13.5201 21.4819 13.4347 21.4573 13.347 21.45L10.2612 21.1848L15.3682 16.8995C15.5036 16.7859 15.5884 16.6231 15.6038 16.4469C15.6192 16.2708 15.564 16.0957 15.4504 15.9603C15.3367 15.8249 15.1739 15.7401 14.9978 15.7247C14.8216 15.7093 14.6466 15.7645 14.5112 15.8781L9.40419 20.1634L9.67453 17.0733C9.69057 16.8972 9.63597 16.7218 9.52273 16.5859C9.4095 16.45 9.2469 16.3646 9.07072 16.3486C8.89454 16.3325 8.7192 16.3871 8.58328 16.5004C8.44736 16.6136 8.36199 16.7762 8.34594 16.9524L7.99772 20.9867C7.96589 21.3384 8.07483 21.6882 8.30062 21.9597Z" fill="#005197" fill-opacity="0.7"/>
<path d="M23.7931 8.69953C23.5652 8.43293 23.2414 8.26689 22.8919 8.23738L18.8583 7.87976C18.6828 7.86493 18.5086 7.92016 18.3737 8.03337C18.2388 8.14658 18.1541 8.30858 18.1383 8.48398C18.1302 8.57162 18.1396 8.65999 18.1659 8.74398C18.1922 8.82796 18.2349 8.90592 18.2914 8.97333C18.348 9.04075 18.4174 9.0963 18.4955 9.13678C18.5737 9.17726 18.6591 9.20186 18.7468 9.20917L21.8325 9.47441L16.7255 13.7597C16.5901 13.8733 16.5054 14.0361 16.4899 14.2123C16.4745 14.3884 16.5297 14.5634 16.6434 14.6989C16.757 14.8343 16.9198 14.9191 17.096 14.9345C17.2721 14.9499 17.4472 14.8947 17.5826 14.7811L22.6896 10.4958L22.4192 13.5858C22.4032 13.762 22.4578 13.9374 22.571 14.0733C22.6843 14.2092 22.8468 14.2946 23.023 14.3106C23.1992 14.3267 23.3745 14.2721 23.5105 14.1588C23.6464 14.0456 23.7318 13.883 23.7478 13.7068L24.096 9.67244C24.1279 9.32082 24.0189 8.97094 23.7931 8.69953Z" fill="#005197" fill-opacity="0.7"/>
</svg>
