<svg width="16" height="18" viewBox="0 0 16 18" fill="none" xmlns="http://www.w3.org/2000/svg">
<g clip-path="url(#clip0_30_8)">
<path d="M12.44 15.3042C12.1667 15.0421 11.74 15.0704 11.5 15.3679C11.12 15.8283 10.5733 16.0904 10 16.0904H3.33333C2.23333 16.0904 1.33333 15.1342 1.33333 13.9654V4.04167C1.33333 2.87292 2.23333 1.91667 3.33333 1.91667H6.34C6.44667 1.91667 6.56 1.91667 6.66667 1.93083V5.45833C6.66667 6.62708 7.56667 7.58333 8.66667 7.58333H12.54C12.7467 7.58333 12.94 7.48417 13.0667 7.30708C13.1933 7.13 13.2333 6.91042 13.1867 6.69792C12.98 5.83375 12.56 5.0475 11.9667 4.41708L9.64667 1.95208C8.76667 1.01708 7.59333 0.5 6.34667 0.5H3.33333C1.49333 0.5 0 2.08667 0 4.04167V13.9583C0 15.9133 1.49333 17.5 3.33333 17.5H10C10.9533 17.5 11.8667 17.0608 12.5 16.3029C12.7467 16.0125 12.72 15.5592 12.44 15.3042ZM8 2.38417C8.25333 2.54 8.48667 2.73125 8.7 2.95792L11.02 5.42292C11.2267 5.6425 11.4067 5.8975 11.5533 6.16667H8.66C8.29333 6.16667 7.99333 5.84792 7.99333 5.45833V2.38417H8ZM15.42 13.3137L14.3467 14.4542C14.2133 14.5958 14.0467 14.6596 13.8733 14.6596C13.7 14.6596 13.5333 14.5888 13.4 14.4542C13.14 14.1779 13.14 13.7317 13.4 13.4554L14.26 12.5417H9.32667C8.96 12.5417 8.66 12.2229 8.66 11.8333C8.66 11.4437 8.96 11.125 9.32667 11.125H14.26L13.4 10.2112C13.14 9.935 13.14 9.48875 13.4 9.2125C13.66 8.93625 14.08 8.93625 14.34 9.2125L15.4133 10.3529C16.18 11.1675 16.18 12.4992 15.4133 13.3208L15.42 13.3137Z" fill="white"/>
</g>
<defs>
<clipPath id="clip0_30_8">
<rect width="16" height="17" fill="white" transform="translate(0 0.5)"/>
</clipPath>
</defs>
</svg>
