<svg width="20" height="20" viewBox="0 0 20 20" fill="none" xmlns="http://www.w3.org/2000/svg">
<g clip-path="url(#clip0_7_7)">
<g clip-path="url(#clip1_7_7)">
<path d="M19.5833 16.25C19.5833 17.6283 18.4617 18.75 17.0833 18.75V19.5833C17.0833 20.0442 16.71 20.4167 16.25 20.4167C15.79 20.4167 15.4167 20.0442 15.4167 19.5833V18.75H15.1933C14.3042 18.75 13.4742 18.2717 13.0283 17.5008C12.7983 17.1017 12.9342 16.5925 13.3325 16.3625C13.73 16.1308 14.2408 16.2683 14.4708 16.6658C14.62 16.9242 14.8967 17.0833 15.1933 17.0833H17.0833C17.5425 17.0833 17.9167 16.71 17.9167 16.25C17.9167 15.9342 17.6908 15.6683 17.38 15.6158L14.8458 15.1942C13.7275 15.0075 12.9167 14.0492 12.9167 12.9167C12.9167 11.5383 14.0383 10.4167 15.4167 10.4167V9.58333C15.4167 9.1225 15.79 8.75 16.25 8.75C16.71 8.75 17.0833 9.1225 17.0833 9.58333V10.4167H17.3067C18.1958 10.4167 19.0258 10.895 19.4717 11.6658C19.7017 12.065 19.5658 12.5742 19.1675 12.8042C18.77 13.0358 18.26 12.8992 18.0292 12.5008C17.88 12.2425 17.6033 12.0833 17.3067 12.0833H15.4167C14.9575 12.0833 14.5833 12.4567 14.5833 12.9167C14.5833 13.2325 14.8092 13.4983 15.12 13.5508L17.6542 13.9725C18.7725 14.1592 19.5833 15.1175 19.5833 16.25ZM3.75 3.75H4.58333C5.04333 3.75 5.41667 3.3775 5.41667 2.91667C5.41667 2.45583 5.79083 2.08333 6.25 2.08333H7.91667C8.37583 2.08333 8.75 2.45667 8.75 2.91667C8.75 3.37667 9.12333 3.75 9.58333 3.75H10.4167C11.795 3.75 12.9167 4.87167 12.9167 6.25V7.91667C12.9167 8.3775 13.29 8.75 13.75 8.75C14.21 8.75 14.5833 8.3775 14.5833 7.91667V6.25C14.5833 3.9525 12.7142 2.08333 10.4167 2.08333H10.2742C9.93 1.11333 9.00333 0.416667 7.91667 0.416667H6.25C5.16333 0.416667 4.23667 1.11333 3.8925 2.08333H3.75C1.4525 2.08333 -0.416667 3.9525 -0.416667 6.25V16.25C-0.416667 18.5475 1.4525 20.4167 3.75 20.4167H10.4167C10.7675 20.4167 11.1175 20.3725 11.4575 20.2858C11.9033 20.1708 12.1717 19.7167 12.0575 19.2717C11.9433 18.8258 11.4908 18.5558 11.0433 18.6708C10.8392 18.7225 10.6283 18.75 10.4175 18.75H3.75C2.37167 18.75 1.25 17.6283 1.25 16.25V6.25C1.25 4.87167 2.37167 3.75 3.75 3.75Z" fill="#005197"/>
<path d="M7.68917 6.0775C8.015 6.40333 8.015 6.93 7.68917 7.25583L5.87333 9.07167C5.5325 9.4125 5.085 9.5825 4.6375 9.5825C4.19 9.5825 3.7425 9.4125 3.40167 9.07167L2.32833 7.9975C2.0025 7.67167 2.0025 7.14417 2.32833 6.81917C2.65417 6.49333 3.18083 6.49333 3.50667 6.81917L4.58 7.89333C4.6075 7.92083 4.6675 7.92083 4.69583 7.89333L6.51167 6.0775C6.8375 5.75167 7.36333 5.75167 7.68917 6.0775Z" fill="#005197"/>
<path d="M7.68917 11.0775C8.015 11.4033 8.015 11.93 7.68917 12.2558L5.87333 14.0717C5.5325 14.4125 5.085 14.5825 4.6375 14.5825C4.19 14.5825 3.7425 14.4125 3.40167 14.0717L2.32833 12.9975C2.0025 12.6717 2.0025 12.1442 2.32833 11.8192C2.65417 11.4933 3.18083 11.4933 3.50667 11.8192L4.58 12.8933C4.6075 12.9208 4.6675 12.9208 4.69583 12.8933L6.51167 11.0775C6.8375 10.7517 7.36333 10.7517 7.68917 11.0775Z" fill="#005197"/>
</g>
</g>
<defs>
<clipPath id="clip0_7_7">
<rect width="20" height="20" fill="white"/>
</clipPath>
<clipPath id="clip1_7_7">
<rect width="20" height="20" fill="white" transform="translate(-0.416667 0.416667)"/>
</clipPath>
</defs>
</svg>
