<svg width="22" height="20" viewBox="0 0 22 20" fill="none" xmlns="http://www.w3.org/2000/svg">
<g clip-path="url(#clip0_1_8)">
<path d="M9.25 19.1667C9.25 19.6267 8.858 20 8.375 20H4.875C2.46263 20 0.5 18.1308 0.5 15.8333V4.16667C0.5 1.86917 2.46263 0 4.875 0H11.875C14.2874 0 16.25 1.86917 16.25 4.16667V5.83333C16.25 6.29333 15.858 6.66667 15.375 6.66667C14.892 6.66667 14.5 6.29333 14.5 5.83333V4.16667C14.5 2.78833 13.3223 1.66667 11.875 1.66667H4.875C3.42775 1.66667 2.25 2.78833 2.25 4.16667V15.8333C2.25 17.2117 3.42775 18.3333 4.875 18.3333H8.375C8.858 18.3333 9.25 18.7067 9.25 19.1667ZM12.75 5C12.75 4.54 12.358 4.16667 11.875 4.16667H4.875C4.392 4.16667 4 4.54 4 5C4 5.46 4.392 5.83333 4.875 5.83333H11.875C12.358 5.83333 12.75 5.46 12.75 5ZM4.875 12.5C4.392 12.5 4 12.8733 4 13.3333C4 13.7933 4.392 14.1667 4.875 14.1667H6.625C7.108 14.1667 7.5 13.7933 7.5 13.3333C7.5 12.8733 7.108 12.5 6.625 12.5H4.875ZM21.5 14.1667C21.5 17.3833 18.7525 20 15.375 20C11.9975 20 9.25 17.3833 9.25 14.1667C9.25 10.95 11.9975 8.33333 15.375 8.33333C18.7525 8.33333 21.5 10.95 21.5 14.1667ZM19.75 14.1667C19.75 11.8692 17.7874 10 15.375 10C12.9626 10 11 11.8692 11 14.1667C11 16.4642 12.9626 18.3333 15.375 18.3333C17.7874 18.3333 19.75 16.4642 19.75 14.1667ZM15.375 10.8333C14.6505 10.8333 14.0625 11.3933 14.0625 12.0833C14.0625 12.7733 14.6505 13.3333 15.375 13.3333C16.0995 13.3333 16.6875 12.7733 16.6875 12.0833C16.6875 11.3933 16.0995 10.8333 15.375 10.8333ZM15.375 14.1667C14.892 14.1667 14.5 14.54 14.5 15V16.6667C14.5 17.1267 14.892 17.5 15.375 17.5C15.858 17.5 16.25 17.1267 16.25 16.6667V15C16.25 14.54 15.858 14.1667 15.375 14.1667ZM9.25 9.16667C9.25 8.70667 8.858 8.33333 8.375 8.33333H4.875C4.392 8.33333 4 8.70667 4 9.16667C4 9.62667 4.392 10 4.875 10H8.375C8.858 10 9.25 9.62667 9.25 9.16667Z" fill="#005197"/>
</g>
<defs>
<clipPath id="clip0_1_8">
<rect width="21" height="20" fill="white" transform="translate(0.5)"/>
</clipPath>
</defs>
</svg>
