<svg width="24" height="25" viewBox="0 0 24 25" fill="none" xmlns="http://www.w3.org/2000/svg">
<g clip-path="url(#clip0_565_997)">
<path d="M10 23.5C10 24.052 9.552 24.5 9 24.5H5C2.243 24.5 0 22.257 0 19.5V5.5C0 2.743 2.243 0.5 5 0.5H13C15.757 0.5 18 2.743 18 5.5V7.5C18 8.052 17.552 8.5 17 8.5C16.448 8.5 16 8.052 16 7.5V5.5C16 3.846 14.654 2.5 13 2.5H5C3.346 2.5 2 3.846 2 5.5V19.5C2 21.154 3.346 22.5 5 22.5H9C9.552 22.5 10 22.948 10 23.5ZM14 6.5C14 5.948 13.552 5.5 13 5.5H5C4.448 5.5 4 5.948 4 6.5C4 7.052 4.448 7.5 5 7.5H13C13.552 7.5 14 7.052 14 6.5ZM5 15.5C4.448 15.5 4 15.948 4 16.5C4 17.052 4.448 17.5 5 17.5H7C7.552 17.5 8 17.052 8 16.5C8 15.948 7.552 15.5 7 15.5H5ZM24 17.5C24 21.36 20.86 24.5 17 24.5C13.14 24.5 10 21.36 10 17.5C10 13.64 13.14 10.5 17 10.5C20.86 10.5 24 13.64 24 17.5ZM22 17.5C22 14.743 19.757 12.5 17 12.5C14.243 12.5 12 14.743 12 17.5C12 20.257 14.243 22.5 17 22.5C19.757 22.5 22 20.257 22 17.5ZM17 13.5C16.172 13.5 15.5 14.172 15.5 15C15.5 15.828 16.172 16.5 17 16.5C17.828 16.5 18.5 15.828 18.5 15C18.5 14.172 17.828 13.5 17 13.5ZM17 17.5C16.448 17.5 16 17.948 16 18.5V20.5C16 21.052 16.448 21.5 17 21.5C17.552 21.5 18 21.052 18 20.5V18.5C18 17.948 17.552 17.5 17 17.5ZM10 11.5C10 10.948 9.552 10.5 9 10.5H5C4.448 10.5 4 10.948 4 11.5C4 12.052 4.448 12.5 5 12.5H9C9.552 12.5 10 12.052 10 11.5Z" fill="#005197"/>
</g>
<defs>
<clipPath id="clip0_565_997">
<rect width="24" height="24" fill="white" transform="translate(0 0.5)"/>
</clipPath>
</defs>
</svg>
