<svg width="20" height="21" viewBox="0 0 20 21" fill="none" xmlns="http://www.w3.org/2000/svg">
<g clip-path="url(#clip0_1755_1984)">
<path d="M20 17.1668C20 18.5451 18.8783 19.6668 17.5 19.6668C17.5 20.1276 17.1275 20.5001 16.6667 20.5001C16.2058 20.5001 15.8333 20.1276 15.8333 19.6668H15.61C14.7208 19.6668 13.8908 19.1884 13.445 18.4176C13.2142 18.0184 13.3508 17.5093 13.7483 17.2793C14.1483 17.0468 14.6575 17.1851 14.8867 17.5826C15.0358 17.8409 15.3125 18.0001 15.6092 18.0001H17.4992C17.9592 18.0001 18.3325 17.6268 18.3325 17.1668C18.3325 16.8509 18.1067 16.5851 17.795 16.5326L15.2617 16.1109C14.1433 15.9243 13.3325 14.9659 13.3325 13.8334C13.3325 12.4551 14.4542 11.3334 15.8325 11.3334C15.8325 10.8734 16.205 10.5001 16.6658 10.5001C17.1267 10.5001 17.4992 10.8734 17.4992 11.3334H17.7225C18.6117 11.3334 19.4417 11.8118 19.8875 12.5826C20.1183 12.9818 19.9817 13.4909 19.5842 13.7209C19.1833 13.9526 18.675 13.8143 18.4458 13.4176C18.2967 13.1593 18.02 13.0001 17.7233 13.0001H15.8333C15.3733 13.0001 15 13.3734 15 13.8334C15 14.1493 15.2258 14.4151 15.5375 14.4676L18.0708 14.8893C19.1892 15.0759 20 16.0343 20 17.1668ZM12.4858 19.3651C12.5692 19.8176 12.2692 20.2518 11.8167 20.3351C11.22 20.4451 10.6092 20.5001 9.99917 20.5001C4.48583 20.5001 0 16.0143 0 10.5001C0 4.98594 4.45833 0.530941 9.94833 0.502607C9.9825 0.500107 10.0158 0.500107 10.0492 0.502607C14.855 0.526774 18.9667 3.95761 19.8342 8.68344C19.9175 9.13594 19.6175 9.57011 19.165 9.65344C18.7083 9.74011 18.2792 9.43677 18.195 8.98427C18.1333 8.64677 18.0442 8.32094 17.9442 8.00011H13.9575C13.9575 8.00011 13.9558 8.00011 13.955 8.00011C13.9542 8.00011 13.9533 8.00011 13.9525 8.00011H6.64333C6.4 8.79427 6.25 9.63427 6.25 10.5001C6.25 11.3659 6.39917 12.2068 6.64167 13.0001H10.8333C11.2942 13.0001 11.6667 13.3726 11.6667 13.8334C11.6667 14.2943 11.2942 14.6668 10.8333 14.6668H7.31083C8.32083 16.7234 9.76167 18.2659 10.32 18.8193C10.7217 18.8043 11.1233 18.7684 11.5167 18.6959C11.9683 18.6084 12.4025 18.9126 12.4867 19.3651H12.4858ZM4.58333 10.5001C4.58333 9.63177 4.71417 8.79677 4.91917 8.00011H2.05083C1.80167 8.79011 1.66667 9.62927 1.66667 10.5001C1.66667 11.3709 1.8025 12.2101 2.05083 13.0001H4.91917C4.71417 12.2034 4.58333 11.3684 4.58333 10.5001ZM7.315 6.33344H12.6917C11.84 4.60011 10.68 3.23177 10.0008 2.51177C9.32417 3.23011 8.16833 4.59761 7.315 6.33344ZM12.1617 2.45094C12.9475 3.42511 13.86 4.76094 14.5208 6.33344H17.2192C16.1208 4.43094 14.3025 3.02427 12.1625 2.45094H12.1617ZM2.79417 6.33344H5.48167C6.1375 4.77094 7.04 3.43761 7.82417 2.46511C5.6825 3.04594 3.88417 4.45594 2.79417 6.33344ZM7.82417 18.5351C7.04083 17.5626 6.1375 16.2293 5.48167 14.6668H2.79417C3.88417 16.5443 5.6825 17.9543 7.82333 18.5351H7.82417Z" fill="#005197"/>
</g>
<defs>
<clipPath id="clip0_1755_1984">
<rect width="20" height="20" fill="white" transform="translate(0 0.5)"/>
</clipPath>
</defs>
</svg>
