<svg width="16" height="16" viewBox="0 0 16 16" fill="none" xmlns="http://www.w3.org/2000/svg">
<path d="M13.2993 3.69067L10.9767 1.36667C10.0947 0.485333 8.92267 0 7.67667 0H4.66667C2.82867 0 1.33333 1.49533 1.33333 3.33333V7.33333C1.33333 7.70133 1.63133 8 2 8C2.36867 8 2.66667 7.70133 2.66667 7.33333V3.33333C2.66667 2.23067 3.564 1.33333 4.66667 1.33333H7.67667C7.78533 1.33333 7.89333 1.33867 8 1.34867V4.66667C8 5.76933 8.89733 6.66667 10 6.66667H13.318C13.328 6.77333 13.3333 6.88133 13.3333 6.99V12.6667C13.3333 13.7693 12.436 14.6667 11.3333 14.6667H4.66667C3.564 14.6667 2.66667 13.7693 2.66667 12.6667C2.66667 12.2987 2.36867 12 2 12C1.63133 12 1.33333 12.2987 1.33333 12.6667C1.33333 14.5047 2.82867 16 4.66667 16H11.3333C13.1713 16 14.6667 14.5047 14.6667 12.6667V6.99C14.6667 5.74267 14.1807 4.572 13.2993 3.69067ZM10 5.33333C9.632 5.33333 9.33333 5.034 9.33333 4.66667V1.77267C9.58667 1.918 9.822 2.09733 10.034 2.30933L12.3567 4.63333C12.5687 4.84467 12.748 5.08 12.8933 5.33333H9.99933H10ZM6.932 10.6667H0.666667C0.298 10.6667 0 10.368 0 10C0 9.632 0.298 9.33333 0.666667 9.33333H6.932L6.07 8.47133C5.80933 8.21067 5.80933 7.78867 6.07 7.52867C6.33067 7.268 6.752 7.268 7.01267 7.52867L8.088 8.60467C8.85733 9.374 8.85733 10.626 8.088 11.396L7.01267 12.472C6.88267 12.602 6.712 12.6673 6.54133 12.6673C6.37067 12.6673 6.2 12.602 6.07 12.472C5.80933 12.212 5.80933 11.79 6.07 11.5293L6.932 10.6667Z" fill="white"/>
</svg>
