<svg width="40" height="40" viewBox="0 0 40 40" fill="none" xmlns="http://www.w3.org/2000/svg">
<rect width="40" height="40" rx="8" fill="#CA8A04" fill-opacity="0.16"/>
<g clip-path="url(#clip0_302_456)">
<path d="M31.7514 28.08L29.2424 22.551C28.8244 21.63 27.9714 21.024 26.9614 20.928C25.9404 20.831 24.9964 21.271 24.4124 22.098L22.5704 24.708L14.5064 19.727L15.6054 16.663C15.7014 16.394 15.9094 16.18 16.1744 16.073C16.2904 16.023 16.4154 15.999 16.5424 15.999C16.6944 15.999 16.8484 16.034 16.9904 16.105L17.4604 16.282C18.1474 16.624 18.6714 17.211 18.9344 17.934L20.0274 21.114C20.2094 21.643 20.7894 21.92 21.3154 21.729C21.8284 21.543 22.0974 20.979 21.9194 20.463L20.8144 17.25C20.3764 16.043 19.5024 15.063 18.3534 14.491L17.8834 14.314C17.1164 13.932 16.2224 13.896 15.4274 14.216C14.6324 14.535 14.0114 15.181 13.7224 15.987L12.7664 18.651L9.52536 16.649C9.05536 16.359 8.43936 16.503 8.14936 16.974C7.85936 17.444 8.00436 18.06 8.47436 18.35L21.4144 26.344L20.5104 27.625C19.9104 28.473 19.8354 29.572 20.3124 30.493C20.7934 31.422 21.7454 31.999 22.7944 31.999H29.2054C30.1614 31.999 31.0404 31.52 31.5564 30.72C32.0684 29.925 32.1404 28.938 31.7504 28.079L31.7514 28.08ZM29.8754 29.638C29.8064 29.747 29.6004 30 29.2064 30H22.7954C22.3574 30 22.1554 29.702 22.0894 29.574C22.0254 29.45 21.9014 29.124 22.1454 28.779L26.0474 23.25C26.2494 22.964 26.5304 22.916 26.6964 22.916C26.7254 22.916 26.7524 22.916 26.7724 22.919C26.9114 22.933 27.2514 23.003 27.4204 23.377L29.9294 28.907C30.0844 29.249 29.9434 29.532 29.8744 29.637L29.8754 29.638ZM17.0004 10.5C17.0004 9.119 18.1194 8 19.5004 8C20.8814 8 22.0004 9.119 22.0004 10.5C22.0004 11.881 20.8814 13 19.5004 13C18.1194 13 17.0004 11.881 17.0004 10.5ZM18.0004 27V31C18.0004 31.553 17.5534 32 17.0004 32C16.4474 32 16.0004 31.553 16.0004 31V27C16.0004 26.447 16.4474 26 17.0004 26C17.5534 26 18.0004 26.447 18.0004 27ZM12.8594 24.203L10.3274 31.335C10.1814 31.744 9.79636 32 9.38536 32C9.27436 32 9.16136 31.981 9.05036 31.942C8.52936 31.757 8.25836 31.185 8.44336 30.665L10.9754 23.533C11.1604 23.012 11.7284 22.742 12.2524 22.926C12.7734 23.111 13.0444 23.683 12.8594 24.203Z" fill="#CA8A04"/>
</g>
<defs>
<clipPath id="clip0_302_456">
<rect width="24" height="24" fill="white" transform="translate(8 8)"/>
</clipPath>
</defs>
</svg>
