<svg width="48" height="48" viewBox="0 0 48 48" fill="none" xmlns="http://www.w3.org/2000/svg">
<rect width="48" height="48" rx="24" fill="#FEFCE8"/>
<path d="M31 12H17C14.243 12 12 14.243 12 17V31C12 33.757 14.243 36 17 36H31C33.757 36 36 33.757 36 31V17C36 14.243 33.757 12 31 12ZM34 31C34 32.654 32.654 34 31 34H17C15.346 34 14 32.654 14 31V17C14 16.648 14.072 16.314 14.184 16H33.816C33.928 16.314 34 16.648 34 17V31ZM16 20C16 19.448 16.447 19 17 19H20C20.553 19 21 19.448 21 20C21 20.552 20.553 21 20 21H17C16.447 21 16 20.552 16 20ZM26 25C26 25.553 25.553 26 25 26H19C18.447 26 18 25.553 18 25C18 24.447 18.447 24 19 24H25C25.553 24 26 24.448 26 25ZM26 30C26 30.553 25.553 31 25 31H17C16.447 31 16 30.553 16 30C16 29.447 16.447 29 17 29H25C25.553 29 26 29.447 26 30ZM32 30C32 31.105 31.105 32 30 32C28.895 32 28 31.105 28 30C28 29.262 28.405 28.624 29 28.277V22C29 21.449 28.552 21 28 21H26.723C26.377 21.595 25.739 22 25 22C23.895 22 23 21.105 23 20C23 18.895 23.895 18 25 18C25.738 18 26.376 18.405 26.723 19H28C29.654 19 31 20.346 31 22V28.277C31.595 28.623 32 29.261 32 30Z" fill="#CA8A04"/>
</svg>
