<svg width="20" height="20" viewBox="0 0 20 20" fill="none" xmlns="http://www.w3.org/2000/svg">
<g clip-path="url(#clip0_20_8)">
<path d="M18.75 15C18.75 14.6167 18.6758 14.2542 18.5683 13.9067L19.7492 13.2267L18.9167 11.7833L17.7417 12.4608C17.2375 11.9175 16.5808 11.5225 15.8342 11.3517V10.0008H14.1675V11.3517C13.4208 11.5225 12.7633 11.9167 12.26 12.4608L11.085 11.7833L10.2525 13.2267L11.4333 13.9067C11.3258 14.255 11.2517 14.6175 11.2517 15C11.2517 15.3825 11.3258 15.7458 11.4333 16.0933L10.2525 16.7733L11.085 18.2167L12.26 17.5392C12.7642 18.0825 13.4208 18.4775 14.1675 18.6483V19.9992H15.8342V18.6483C16.5808 18.4775 17.2383 18.0833 17.7417 17.5392L18.9167 18.2167L19.7492 16.7733L18.5683 16.0933C18.6758 15.745 18.75 15.3825 18.75 15ZM15 16.25C14.3108 16.25 13.75 15.6892 13.75 15C13.75 14.3108 14.3108 13.75 15 13.75C15.6892 13.75 16.25 14.3108 16.25 15C16.25 15.6892 15.6892 16.25 15 16.25ZM0 8.80583V7C1.56333 8.33 4.1 9.16667 7.08333 9.16667C10.0667 9.16667 12.6033 8.33 14.1667 7V8.39083C12.1208 8.64667 10.3675 9.8275 9.33167 11.5033C8.63083 11.6067 7.8775 11.6667 7.08333 11.6667C3.02917 11.6667 0 10.1567 0 8.80583ZM0 3.75C0 1.67917 3.17167 0 7.08333 0C10.995 0 14.1667 1.67917 14.1667 3.75C14.1667 5.82083 10.995 7.5 7.08333 7.5C3.17167 7.5 0 5.82083 0 3.75ZM0 12.9717V11.5217C1.56333 12.6333 4.1 13.3333 7.08333 13.3333C7.595 13.3333 8.08667 13.3058 8.56917 13.2658C8.42 13.82 8.33333 14.3992 8.33333 15C8.33333 15.2633 8.3525 15.5225 8.3825 15.7775C7.9625 15.8117 7.53083 15.8333 7.08333 15.8333C3.02917 15.8333 0 14.3233 0 12.9717ZM8.79083 17.4125C9.12 18.2592 9.61333 19.0225 10.2375 19.66C9.25167 19.885 8.16667 20 7.08417 20C3.56417 20 0.000833333 18.7942 0.000833333 16.4883V15.6883C1.56417 16.8 4.10083 17.5 7.08417 17.5C7.67417 17.5 8.24 17.465 8.79167 17.4125H8.79083Z" fill="#2563EB"/>
</g>
<defs>
<clipPath id="clip0_20_8">
<rect width="20" height="20" fill="white"/>
</clipPath>
</defs>
</svg>
