<svg width="12" height="12" viewBox="0 0 12 12" fill="none" xmlns="http://www.w3.org/2000/svg">
<path d="M3.94948 8.05255C3.65642 7.75998 3.65642 7.28437 3.94948 6.9918C4.24255 6.69873 4.71716 6.69873 5.01023 6.9918C5.67338 7.65496 6.83064 7.65546 7.49379 6.9918L9.98887 4.4967C10.6735 3.81204 10.6735 2.69777 9.98887 2.01311C9.30421 1.32844 8.18995 1.32844 7.5053 2.01311C7.21223 2.30618 6.73762 2.30618 6.44455 2.01311C6.15149 1.72054 6.15149 1.24492 6.44455 0.952353C7.71384 -0.317451 9.78032 -0.317451 11.0496 0.952353C12.3194 2.22216 12.3194 4.28765 11.0496 5.55746L8.55454 8.05255C7.91939 8.68771 7.0857 9.00478 6.25201 9.00478C5.41832 9.00478 4.58413 8.68721 3.94948 8.05255ZM3.25732 12C4.09101 12 4.92471 11.6824 5.55985 11.0478C5.85292 10.7552 5.85292 10.2796 5.55985 9.98702C5.26678 9.69395 4.79218 9.69395 4.49911 9.98702C3.81395 10.6722 2.6997 10.6717 2.01554 9.98702C1.33088 9.30235 1.33088 8.18809 2.01554 7.50342L4.49661 5.02233C5.18176 4.33716 6.29602 4.33716 6.98018 5.02233C7.27324 5.3154 7.74785 5.3154 8.04092 5.02233C8.33399 4.72976 8.33399 4.25414 8.04092 3.96157C6.77113 2.69177 4.70566 2.69177 3.43586 3.96157L0.954296 6.44267C-0.315495 7.71247 -0.315495 9.77797 0.954296 11.0478C1.58944 11.6829 2.42363 12 3.25732 12Z" fill="#2563EB"/>
</svg>
