<svg width="17" height="16" viewBox="0 0 17 16" fill="none" xmlns="http://www.w3.org/2000/svg">
<path d="M0.75 12.0003V3.33366C0.75 1.86299 1.946 0.666992 3.41667 0.666992H4.75C5.05933 0.666992 5.36867 0.739659 5.64467 0.877659L7.748 1.92966C7.84 1.97566 7.94333 1.99966 8.046 1.99966H11.4167C13.2547 1.99966 14.75 3.49499 14.75 5.33299H7.43267C5.674 5.33299 4.09733 6.51033 3.59667 8.20166L1.81467 14.4277C1.16333 13.819 0.75 12.9597 0.75 12.0003ZM16.412 7.34499C16.0927 6.91633 15.606 6.67033 15.0733 6.66166C15.0633 6.66166 15.0553 6.66699 15.0453 6.66699H7.43267C6.26067 6.66699 5.20933 7.45166 4.87667 8.57499L2.998 15.137C3.34 15.2557 3.70133 15.3337 4.08333 15.3337H12.4553C13.9393 15.3337 15.222 14.379 15.6567 12.929L16.678 8.85166C16.834 8.33033 16.7367 7.78166 16.412 7.34499Z" fill="#2BA95A"/>
</svg>
