<svg width="24" height="24" viewBox="0 0 24 24" fill="none" xmlns="http://www.w3.org/2000/svg">
<g clip-path="url(#clip0_2155_3522)">
<path d="M19 2.00009H16.461C16.26 1.77609 16.048 1.56109 15.812 1.36709C14.423 0.223093 12.597 -0.233907 10.801 0.117093C9.525 0.366093 8.423 1.05409 7.589 2.00009H5C2.243 2.00009 0 4.24309 0 7.00009V19.0001C0 21.7571 2.243 24.0001 5 24.0001H9C9.553 24.0001 10 23.5531 10 23.0001C10 22.4471 9.553 22.0001 9 22.0001H5C3.346 22.0001 2 20.6541 2 19.0001V7.00009C2 5.34609 3.346 4.00009 5 4.00009H6.393C6.142 4.69209 6 5.43709 6 6.21509C6 7.75109 7.249 9.00009 8.785 9.00009H15.215C16.751 9.00009 18 7.75009 18 6.21509C18.018 5.45709 17.906 4.69809 17.656 4.00009H19C20.654 4.00009 22 5.34609 22 7.00009V9.00009C22 9.55209 22.447 10.0001 23 10.0001C23.553 10.0001 24 9.55209 24 9.00009V7.00009C24 4.24309 21.757 2.00009 19 2.00009ZM16 6.21509C16 6.64809 15.647 7.00009 15.215 7.00009H12.869L13.833 5.55509C14.14 5.09609 14.016 4.47409 13.556 4.16809C13.094 3.86009 12.475 3.98509 12.169 4.44509L10.466 7.00009H8.786C8.353 7.00009 8.001 6.64809 8.001 6.21509C7.991 3.86709 9.786 1.95909 12.009 1.99909C14.235 1.94809 16.152 3.99609 16 6.21509ZM17 10.0001C13.141 10.0001 10 13.1411 10 17.0001C10 20.8591 13.141 24.0001 17 24.0001C20.859 24.0001 24 20.8591 24 17.0001C24 13.1411 20.859 10.0001 17 10.0001ZM17 22.0001C14.243 22.0001 12 19.7571 12 17.0001C12 14.2431 14.243 12.0001 17 12.0001C19.757 12.0001 22 14.2431 22 17.0001C22 19.7571 19.757 22.0001 17 22.0001ZM19.742 15.5011C20.297 16.0231 19.821 17.0001 19.121 17.0001H18V19.0001C18 19.5531 17.553 20.0001 17 20.0001C16.447 20.0001 16 19.5531 16 19.0001V17.0001H14.879C14.128 17.0001 13.701 16.0191 14.258 15.5011L15.758 14.0011C16.443 13.3161 17.558 13.3161 18.243 14.0011L19.742 15.5011Z" fill="#9333EA"/>
</g>
<defs>
<clipPath id="clip0_2155_3522">
<rect width="24" height="24" fill="white"/>
</clipPath>
</defs>
</svg>
