<svg width="24" height="24" viewBox="0 0 24 24" fill="none" xmlns="http://www.w3.org/2000/svg">
<g clip-path="url(#clip0_79_334)">
<path d="M23.63 16.862L21.6 8.889C21.244 8.962 20.877 9 20.5 9C19.767 9 19.069 8.853 18.428 8.592L20.568 17H3.419L5.71 8.045C6.37 5.074 8.957 3 12 3C13.076 3 14.105 3.27 15.013 3.748C15.009 3.665 15 3.584 15 3.5C15 2.507 15.269 1.577 15.731 0.771C14.577 0.273 13.312 0 12 0C7.54 0 3.75 3.041 2.793 7.348L0.320995 17.011C0.167995 17.713 0.355995 18.481 0.823995 19.064C1.302 19.66 2.012 20.001 2.775 20.001H6.917C7.48 22.294 9.534 24.001 12.001 24.001C14.468 24.001 16.522 22.294 17.085 20.001H21.213C22.002 20.001 22.728 19.641 23.203 19.015C23.61 18.48 23.765 17.822 23.675 17.169C23.671 17.068 23.656 16.965 23.63 16.863V16.862ZM17 3.5C17 1.57 18.57 0 20.5 0C22.43 0 24 1.57 24 3.5C24 5.43 22.43 7 20.5 7C18.57 7 17 5.43 17 3.5Z" fill="#005197"/>
<circle cx="20.5" cy="3.5" r="3.5" fill="#FF0000"/>
</g>
<defs>
<clipPath id="clip0_79_334">
<rect width="24" height="24" fill="white"/>
</clipPath>
</defs>
</svg>
