<svg width="20" height="20" viewBox="0 0 20 20" fill="none" xmlns="http://www.w3.org/2000/svg">
<g clip-path="url(#clip0_114_60)">
<path d="M6.66667 13.3333C6.66667 14.0233 6.10667 14.5833 5.41667 14.5833C4.72667 14.5833 4.16667 14.0233 4.16667 13.3333C4.16667 12.6433 4.72667 12.0833 5.41667 12.0833C6.10667 12.0833 6.66667 12.6433 6.66667 13.3333ZM5.41667 3.75C4.72667 3.75 4.16667 4.31 4.16667 5C4.16667 5.69 4.72667 6.25 5.41667 6.25C6.10667 6.25 6.66667 5.69 6.66667 5C6.66667 4.31 6.10667 3.75 5.41667 3.75ZM5.41667 7.91667C4.72667 7.91667 4.16667 8.47667 4.16667 9.16667C4.16667 9.85667 4.72667 10.4167 5.41667 10.4167C6.10667 10.4167 6.66667 9.85667 6.66667 9.16667C6.66667 8.47667 6.10667 7.91667 5.41667 7.91667ZM15.8333 0H4.16667C1.86917 0 0 1.86917 0 4.16667V15C0 17.2975 1.86917 19.1667 4.16667 19.1667H6.66667C7.12667 19.1667 7.5 18.7942 7.5 18.3333C7.5 17.8725 7.12667 17.5 6.66667 17.5H4.16667C2.78833 17.5 1.66667 16.3783 1.66667 15V4.16667C1.66667 2.78833 2.78833 1.66667 4.16667 1.66667H15.8333C17.2117 1.66667 18.3333 2.78833 18.3333 4.16667V11.6667C18.3333 12.1275 18.7067 12.5 19.1667 12.5C19.6267 12.5 20 12.1275 20 11.6667V4.16667C20 1.86917 18.1308 0 15.8333 0ZM9.16667 5.83333H15C15.46 5.83333 15.8333 5.46 15.8333 5C15.8333 4.54 15.46 4.16667 15 4.16667H9.16667C8.70667 4.16667 8.33333 4.54 8.33333 5C8.33333 5.46 8.70667 5.83333 9.16667 5.83333ZM9.16667 10H15C15.46 10 15.8333 9.62667 15.8333 9.16667C15.8333 8.70667 15.46 8.33333 15 8.33333H9.16667C8.70667 8.33333 8.33333 8.70667 8.33333 9.16667C8.33333 9.62667 8.70667 10 9.16667 10ZM19.7542 15.4575C20.08 15.9392 20.08 16.5608 19.7542 17.0425C19.0075 18.1467 17.2883 20 14.1667 20C11.045 20 9.32583 18.1467 8.57833 17.0425C8.2525 16.56 8.2525 15.9383 8.57833 15.4575C9.325 14.3533 11.0433 12.5 14.1658 12.5C17.2883 12.5 19.0075 14.3533 19.7542 15.4575ZM18.275 16.25C17.6667 15.4117 16.3892 14.1667 14.1667 14.1667C11.9442 14.1667 10.6658 15.4125 10.0583 16.25C10.6658 17.0883 11.9442 18.3333 14.1667 18.3333C16.3892 18.3333 17.6667 17.0883 18.275 16.25ZM14.1667 15C13.4767 15 12.9167 15.56 12.9167 16.25C12.9167 16.94 13.4767 17.5 14.1667 17.5C14.8567 17.5 15.4167 16.94 15.4167 16.25C15.4167 15.56 14.8567 15 14.1667 15Z" fill="#005197"/>
</g>
<defs>
<clipPath id="clip0_114_60">
<rect width="20" height="20" fill="white"/>
</clipPath>
</defs>
</svg>
