<svg width="17" height="16" viewBox="0 0 17 16" fill="none" xmlns="http://www.w3.org/2000/svg">
<path d="M13.8167 14L9.61667 9.8C9.28333 10.0667 8.9 10.2778 8.46667 10.4333C8.03333 10.5889 7.57222 10.6667 7.08333 10.6667C5.87222 10.6667 4.84722 10.2472 4.00833 9.40833C3.16944 8.56944 2.75 7.54444 2.75 6.33333C2.75 5.12222 3.16944 4.09722 4.00833 3.25833C4.84722 2.41944 5.87222 2 7.08333 2C8.29444 2 9.31944 2.41944 10.1583 3.25833C10.9972 4.09722 11.4167 5.12222 11.4167 6.33333C11.4167 6.82222 11.3389 7.28333 11.1833 7.71667C11.0278 8.15 10.8167 8.53333 10.55 8.86667L14.75 13.0667L13.8167 14ZM7.08333 9.33333C7.91667 9.33333 8.625 9.04167 9.20833 8.45833C9.79167 7.875 10.0833 7.16667 10.0833 6.33333C10.0833 5.5 9.79167 4.79167 9.20833 4.20833C8.625 3.625 7.91667 3.33333 7.08333 3.33333C6.25 3.33333 5.54167 3.625 4.95833 4.20833C4.375 4.79167 4.08333 5.5 4.08333 6.33333C4.08333 7.16667 4.375 7.875 4.95833 8.45833C5.54167 9.04167 6.25 9.33333 7.08333 9.33333Z" fill="#005197" fill-opacity="0.32"/>
</svg>
