<svg width="20" height="20" viewBox="0 0 20 20" fill="none" xmlns="http://www.w3.org/2000/svg">
<path d="M9.16667 3.33333V0.833333C9.16667 0.373333 9.54 0 10 0C10.46 0 10.8333 0.373333 10.8333 0.833333V3.33333C10.8333 3.79333 10.46 4.16667 10 4.16667C9.54 4.16667 9.16667 3.79333 9.16667 3.33333ZM5 7.5H2.5C2.04 7.5 1.66667 7.87333 1.66667 8.33333C1.66667 8.79333 2.04 9.16667 2.5 9.16667H5C5.46 9.16667 5.83333 8.79333 5.83333 8.33333C5.83333 7.87333 5.46 7.5 5 7.5ZM5.25917 2.505C4.93333 2.17917 4.40667 2.17917 4.08083 2.505C3.755 2.83083 3.755 3.3575 4.08083 3.68333L5.84917 5.45167C6.175 5.7775 6.70167 5.7775 7.0275 5.45167C7.35333 5.12583 7.35333 4.59917 7.0275 4.27333L5.25917 2.505ZM13.5358 5.63083C13.7492 5.63083 13.9625 5.54917 14.125 5.38667L15.8925 3.61917C16.2183 3.29333 16.2183 2.76667 15.8925 2.44083C15.5667 2.115 15.04 2.115 14.7142 2.44083L12.9467 4.20833C12.6208 4.53417 12.6208 5.06083 12.9467 5.38667C13.1092 5.54917 13.3225 5.63083 13.5358 5.63083ZM18.3683 14.0417C18.2683 14.3417 18.0058 14.5592 17.6925 14.6033L15.4467 14.9158L16.0492 16.2583C16.6133 17.3683 16.3058 18.7775 15.3183 19.5008C14.1058 20.4358 12.2067 19.9917 11.5392 18.6192L10.7967 16.9975L8.8825 18.6725C8.63583 18.8875 8.28667 18.94 7.98917 18.8042C7.69167 18.6692 7.5 18.3725 7.5 18.045V8.1625C7.5 7.24083 8.02083 6.43 8.85833 6.04667C9.69667 5.66333 10.65 5.8 11.3467 6.40167L18.1658 13.1875C18.39 13.4108 18.4683 13.7417 18.3683 14.0417ZM15.8 13.1833L10.2142 7.6225C9.96833 7.41333 9.66917 7.50917 9.55167 7.56167C9.43583 7.61417 9.16667 7.77917 9.16667 8.16167V16.2075L10.54 15.0058C10.7383 14.8317 11.0092 14.7625 11.2642 14.8183C11.5217 14.8733 11.7375 15.0467 11.8475 15.2867L13.0383 17.8908C13.1392 18.085 13.3508 18.2508 13.6017 18.31C13.8575 18.37 14.1167 18.315 14.3333 18.1558C14.665 17.9125 14.7583 17.395 14.5458 16.9758L13.4717 14.5842C13.3642 14.3442 13.3758 14.0683 13.5025 13.8392C13.6292 13.61 13.8575 13.4533 14.1167 13.4175L15.8 13.1842V13.1833Z" fill="white"/>
</svg>
