<svg width="17" height="16" viewBox="0 0 17 16" fill="none" xmlns="http://www.w3.org/2000/svg">
<g clip-path="url(#clip0_1220_2727)">
<path d="M10.084 4.66667V0.306667C10.7007 0.539557 11.2608 0.900874 11.7273 1.36667L14.05 3.69067C14.5163 4.15659 14.8779 4.7166 15.1107 5.33333H10.7507C10.5738 5.33333 10.4043 5.2631 10.2792 5.13807C10.1542 5.01305 10.084 4.84348 10.084 4.66667ZM15.4173 6.99V12.6667C15.4163 13.5504 15.0647 14.3976 14.4398 15.0225C13.8149 15.6474 12.9677 15.9989 12.084 16H5.41732C4.53359 15.9989 3.68636 15.6474 3.06146 15.0225C2.43657 14.3976 2.08504 13.5504 2.08398 12.6667V3.33333C2.08504 2.4496 2.43657 1.60237 3.06146 0.97748C3.68636 0.352588 4.53359 0.00105857 5.41732 0L8.42732 0C8.53598 0 8.64332 0.00866667 8.75065 0.016V4.66667C8.75065 5.1971 8.96136 5.70581 9.33644 6.08088C9.71151 6.45595 10.2202 6.66667 10.7507 6.66667H15.4013C15.4087 6.774 15.4173 6.88133 15.4173 6.99ZM10.084 12.6667C10.084 12.4899 10.0137 12.3203 9.88872 12.1953C9.7637 12.0702 9.59413 12 9.41732 12H6.08398C5.90717 12 5.7376 12.0702 5.61258 12.1953C5.48756 12.3203 5.41732 12.4899 5.41732 12.6667C5.41732 12.8435 5.48756 13.013 5.61258 13.1381C5.7376 13.2631 5.90717 13.3333 6.08398 13.3333H9.41732C9.59413 13.3333 9.7637 13.2631 9.88872 13.1381C10.0137 13.013 10.084 12.8435 10.084 12.6667ZM12.084 10C12.084 9.82319 12.0137 9.65362 11.8887 9.5286C11.7637 9.40357 11.5941 9.33333 11.4173 9.33333H6.08398C5.90717 9.33333 5.7376 9.40357 5.61258 9.5286C5.48756 9.65362 5.41732 9.82319 5.41732 10C5.41732 10.1768 5.48756 10.3464 5.61258 10.4714C5.7376 10.5964 5.90717 10.6667 6.08398 10.6667H11.4173C11.5941 10.6667 11.7637 10.5964 11.8887 10.4714C12.0137 10.3464 12.084 10.1768 12.084 10Z" fill="black" fill-opacity="0.5"/>
</g>
<defs>
<clipPath id="clip0_1220_2727">
<rect width="16" height="16" fill="white" transform="translate(0.75)"/>
</clipPath>
</defs>
</svg>
