<svg width="20" height="20" viewBox="0 0 20 20" fill="none" xmlns="http://www.w3.org/2000/svg">
<g clip-path="url(#clip0_2_2)">
<path d="M5.67083 8.33333C5.90167 8.73583 6.4175 8.86583 6.80917 8.63833L7.44083 8.27333C7.85083 8.71417 8.4225 8.9925 9.1675 9.105V10C9.1675 10.4608 9.54083 10.8333 10.0008 10.8333C10.4608 10.8333 10.8342 10.4608 10.8342 10V9.105C11.5792 8.9925 12.1508 8.71417 12.5608 8.27333L13.1925 8.63833C13.5833 8.86583 14.1 8.73583 14.3308 8.33333C14.5608 7.935 14.425 7.425 14.0258 7.195L13.2533 6.74917C13.3017 6.46667 13.3342 6.16667 13.3342 5.83333C13.3342 5.5 13.3025 5.2 13.2533 4.9175L14.0258 4.47167C14.425 4.24167 14.5608 3.73083 14.3308 3.33333C14.1 2.93083 13.5842 2.80083 13.1925 3.02833L12.5608 3.39333C12.1508 2.9525 11.5792 2.67417 10.8342 2.56167V1.66667C10.8342 1.20583 10.4608 0.833333 10.0008 0.833333C9.54083 0.833333 9.1675 1.20583 9.1675 1.66667V2.56167C8.4225 2.67417 7.85083 2.9525 7.44083 3.39333L6.80917 3.02833C6.41833 2.80083 5.90167 2.93083 5.67083 3.33333C5.44083 3.73167 5.57667 4.24167 5.97583 4.47167L6.74833 4.9175C6.7 5.2 6.6675 5.5 6.6675 5.83333C6.6675 6.16667 6.69917 6.46667 6.74833 6.74917L5.97583 7.195C5.57667 7.425 5.44083 7.93583 5.67083 8.33333ZM10.0008 4.16667C11.325 4.16667 11.6675 4.50917 11.6675 5.83333C11.6675 7.1575 11.325 7.5 10.0008 7.5C8.67667 7.5 8.33417 7.1575 8.33417 5.83333C8.33417 4.50917 8.67667 4.16667 10.0008 4.16667ZM19.1667 8.33333C19.1667 11.9975 18.3167 14.3075 18.2808 14.4042C18.1942 14.6333 18.0108 14.8142 17.7792 14.8967C17.6775 14.9325 15.3658 15.7342 10.8333 15.8242V17.5H13.3342C13.7942 17.5 14.1675 17.8725 14.1675 18.3333C14.1675 18.7942 13.7942 19.1667 13.3342 19.1667H6.6675C6.2075 19.1667 5.83417 18.7942 5.83417 18.3333C5.83417 17.8725 6.2075 17.5 6.6675 17.5H9.1675V15.8242C4.63417 15.7342 2.3225 14.9325 2.22083 14.8967C1.98917 14.8142 1.80583 14.6342 1.71917 14.4042C1.68333 14.3075 0.833333 11.9975 0.833333 8.33333C0.833333 4.66917 1.68333 2.35917 1.71917 2.2625C1.80583 2.03333 1.98917 1.8525 2.22083 1.77C2.24583 1.76083 2.85167 1.5475 4.01417 1.33083C4.46583 1.24417 4.90167 1.54417 4.98667 1.99583C5.07167 2.44833 4.77333 2.88333 4.32083 2.96833C3.80583 3.065 3.41833 3.15917 3.16 3.22833C2.94083 3.98167 2.5 5.81167 2.5 8.33333C2.5 10.855 2.94 12.6825 3.16 13.4375C4.01583 13.6658 6.31 14.1667 10 14.1667C13.69 14.1667 15.9833 13.6667 16.84 13.4375C17.0592 12.6842 17.5 10.8533 17.5 8.33333C17.5 5.81333 17.06 3.9825 16.84 3.22833C16.5825 3.15917 16.195 3.065 15.68 2.96833C15.2275 2.88333 14.93 2.4475 15.015 1.995C15.1008 1.54333 15.5392 1.24833 15.9883 1.33083C17.1492 1.54917 17.7533 1.76167 17.7783 1.77C18.01 1.8525 18.1942 2.0325 18.2808 2.2625C18.3167 2.35917 19.1667 4.66917 19.1667 8.33333Z" fill="#005197"/>
</g>
<defs>
<clipPath id="clip0_2_2">
<rect width="20" height="20" fill="white"/>
</clipPath>
</defs>
</svg>
