<svg width="24" height="25" viewBox="0 0 24 25" fill="none" xmlns="http://www.w3.org/2000/svg">
<path d="M6.805 10.5C7.082 10.983 7.701 11.139 8.171 10.866L8.929 10.428C9.421 10.957 10.107 11.291 11.001 11.426V12.5C11.001 13.053 11.449 13.5 12.001 13.5C12.553 13.5 13.001 13.053 13.001 12.5V11.426C13.895 11.291 14.581 10.957 15.073 10.428L15.831 10.866C16.3 11.139 16.92 10.983 17.197 10.5C17.473 10.022 17.31 9.41 16.831 9.134L15.904 8.599C15.962 8.26 16.001 7.9 16.001 7.5C16.001 7.1 15.963 6.74 15.904 6.401L16.831 5.866C17.31 5.59 17.473 4.977 17.197 4.5C16.92 4.017 16.301 3.861 15.831 4.134L15.073 4.572C14.581 4.043 13.895 3.709 13.001 3.574V2.5C13.001 1.947 12.553 1.5 12.001 1.5C11.449 1.5 11.001 1.947 11.001 2.5V3.574C10.107 3.709 9.421 4.043 8.929 4.572L8.171 4.134C7.702 3.861 7.082 4.017 6.805 4.5C6.529 4.978 6.692 5.59 7.171 5.866L8.098 6.401C8.04 6.74 8.001 7.1 8.001 7.5C8.001 7.9 8.039 8.26 8.098 8.599L7.171 9.134C6.692 9.41 6.529 10.023 6.805 10.5ZM12.001 5.5C13.59 5.5 14.001 5.911 14.001 7.5C14.001 9.089 13.59 9.5 12.001 9.5C10.412 9.5 10.001 9.089 10.001 7.5C10.001 5.911 10.412 5.5 12.001 5.5ZM23 10.5C23 14.897 21.98 17.669 21.937 17.785C21.833 18.06 21.613 18.277 21.335 18.376C21.213 18.419 18.439 19.381 13 19.489V21.5H16.001C16.553 21.5 17.001 21.947 17.001 22.5C17.001 23.053 16.553 23.5 16.001 23.5H8.001C7.449 23.5 7.001 23.053 7.001 22.5C7.001 21.947 7.449 21.5 8.001 21.5H11.001V19.489C5.561 19.381 2.787 18.419 2.665 18.376C2.387 18.277 2.167 18.061 2.063 17.785C2.02 17.669 1 14.897 1 10.5C1 6.103 2.02 3.331 2.063 3.215C2.167 2.94 2.387 2.723 2.665 2.624C2.695 2.613 3.422 2.357 4.817 2.097C5.359 1.993 5.882 2.353 5.984 2.895C6.086 3.438 5.728 3.96 5.185 4.062C4.567 4.178 4.102 4.291 3.792 4.374C3.529 5.278 3 7.474 3 10.5C3 13.526 3.528 15.719 3.792 16.625C4.819 16.899 7.572 17.5 12 17.5C16.428 17.5 19.18 16.9 20.208 16.625C20.471 15.721 21 13.524 21 10.5C21 7.476 20.472 5.279 20.208 4.374C19.899 4.291 19.434 4.178 18.816 4.062C18.273 3.96 17.916 3.437 18.018 2.894C18.121 2.352 18.647 1.998 19.186 2.097C20.579 2.359 21.304 2.614 21.334 2.624C21.612 2.723 21.833 2.939 21.937 3.215C21.98 3.331 23 6.103 23 10.5Z" fill="#005197"/>
</svg>
