<svg width="20" height="20" viewBox="0 0 20 20" fill="none" xmlns="http://www.w3.org/2000/svg">
<g clip-path="url(#clip0_25_2)">
<path d="M16.625 4.61667L13.725 1.71667C12.625 0.616666 11.1583 0.00833305 9.6 0.00833305H5.83333C3.53333 -2.88326e-07 1.66667 1.86667 1.66667 4.16667V15.8333C1.66667 18.1333 3.53333 20 5.83333 20H14.1667C16.4667 20 18.3333 18.1333 18.3333 15.8333V8.74167C18.3333 7.18333 17.725 5.71667 16.625 4.61667ZM15.45 5.79167C15.7167 6.05833 15.9417 6.35 16.125 6.66667H12.5083C12.05 6.66667 11.675 6.29167 11.675 5.83333V2.21667C11.9917 2.4 12.2833 2.625 12.55 2.89167L15.45 5.79167ZM16.6667 15.8333C16.6667 17.2083 15.5417 18.3333 14.1667 18.3333H5.83333C4.45833 18.3333 3.33333 17.2083 3.33333 15.8333V4.16667C3.33333 2.79167 4.45833 1.66667 5.83333 1.66667H9.59167C9.725 1.66667 9.86667 1.66667 10 1.68333V5.83333C10 7.20833 11.125 8.33333 12.5 8.33333H16.65C16.6667 8.46667 16.6667 8.6 16.6667 8.74167V15.8333ZM8.33333 15.8333C8.33333 16.2917 7.95833 16.6667 7.5 16.6667H5.83333C5.375 16.6667 5 16.2917 5 15.8333V15C5 14.5417 5.375 14.1667 5.83333 14.1667C6.29167 14.1667 6.66667 14.5417 6.66667 15H7.5C7.95833 15 8.33333 15.375 8.33333 15.8333ZM15 15V15.8333C15 16.2917 14.625 16.6667 14.1667 16.6667H12.5C12.0417 16.6667 11.6667 16.2917 11.6667 15.8333C11.6667 15.375 12.0417 15 12.5 15H13.3333C13.3333 14.5417 13.7083 14.1667 14.1667 14.1667C14.625 14.1667 15 14.5417 15 15ZM15 10.8333V11.6667C15 12.125 14.625 12.5 14.1667 12.5C13.7083 12.5 13.3333 12.125 13.3333 11.6667H12.5C12.0417 11.6667 11.6667 11.2917 11.6667 10.8333C11.6667 10.375 12.0417 10 12.5 10H14.1667C14.625 10 15 10.375 15 10.8333ZM8.33333 10.8333C8.33333 11.2917 7.95833 11.6667 7.5 11.6667H6.66667C6.66667 12.125 6.29167 12.5 5.83333 12.5C5.375 12.5 5 12.125 5 11.6667V10.8333C5 10.375 5.375 10 5.83333 10H7.5C7.95833 10 8.33333 10.375 8.33333 10.8333ZM8.33333 7.5C8.33333 7.95833 7.95833 8.33333 7.5 8.33333H5.83333C5.375 8.33333 5 7.95833 5 7.5C5 7.04167 5.375 6.66667 5.83333 6.66667H7.5C7.95833 6.66667 8.33333 7.04167 8.33333 7.5Z" fill="#005197"/>
</g>
<defs>
<clipPath id="clip0_25_2">
<rect width="20" height="20" fill="white"/>
</clipPath>
</defs>
</svg>
