<svg width="40" height="40" viewBox="0 0 40 40" fill="none" xmlns="http://www.w3.org/2000/svg">
<rect width="40" height="40" rx="8" fill="#005197" fill-opacity="0.16"/>
<path d="M27 8H13C10.243 8 8 10.243 8 13V27C8 29.757 10.243 32 13 32H27C29.757 32 32 29.757 32 27V13C32 10.243 29.757 8 27 8ZM30 27C30 28.654 28.654 30 27 30H13C11.346 30 10 28.654 10 27V13C10 12.648 10.072 12.314 10.184 12H29.816C29.928 12.314 30 12.648 30 13V27ZM12 16C12 15.448 12.447 15 13 15H16C16.553 15 17 15.448 17 16C17 16.552 16.553 17 16 17H13C12.447 17 12 16.552 12 16ZM22 21C22 21.553 21.553 22 21 22H15C14.447 22 14 21.553 14 21C14 20.447 14.447 20 15 20H21C21.553 20 22 20.448 22 21ZM22 26C22 26.553 21.553 27 21 27H13C12.447 27 12 26.553 12 26C12 25.447 12.447 25 13 25H21C21.553 25 22 25.447 22 26ZM28 26C28 27.105 27.105 28 26 28C24.895 28 24 27.105 24 26C24 25.262 24.405 24.624 25 24.277V18C25 17.449 24.552 17 24 17H22.723C22.377 17.595 21.739 18 21 18C19.895 18 19 17.105 19 16C19 14.895 19.895 14 21 14C21.738 14 22.376 14.405 22.723 15H24C25.654 15 27 16.346 27 18V24.277C27.595 24.623 28 25.261 28 26Z" fill="#005197"/>
</svg>
