<svg width="40" height="40" viewBox="0 0 40 40" fill="none" xmlns="http://www.w3.org/2000/svg">
<rect width="40" height="40" rx="8" fill="#16A34A" fill-opacity="0.16"/>
<path d="M24 10H23.829C23.416 8.836 22.304 8 21 8H19C17.696 8 16.584 8.836 16.171 10H16C13.243 10 11 12.243 11 15V27C11 29.757 13.243 32 16 32H24C26.757 32 29 29.757 29 27V15C29 12.243 26.757 10 24 10ZM27 27C27 28.654 25.654 30 24 30H16C14.346 30 13 28.654 13 27V15C13 13.346 14.346 12 16 12H17C17.553 12 18 11.552 18 11C18 10.448 18.448 10 19 10H21C21.552 10 22 10.449 22 11C22 11.551 22.447 12 23 12H24C25.654 12 27 13.346 27 15V27ZM20.207 16.037C20.598 16.427 20.598 17.06 20.207 17.451L18.364 19.294C17.891 19.767 17.276 20.004 16.661 20.004C16.067 20.004 15.473 19.783 15.005 19.34L14.356 18.725C13.955 18.345 13.938 17.712 14.318 17.311C14.698 16.909 15.33 16.894 15.731 17.272L16.379 17.886C16.543 18.04 16.794 18.035 16.95 17.878L18.793 16.035C19.184 15.644 19.816 15.644 20.207 16.035V16.037ZM20.207 22.037C20.598 22.427 20.598 23.06 20.207 23.451L18.364 25.294C17.891 25.767 17.276 26.004 16.661 26.004C16.067 26.004 15.473 25.783 15.005 25.34L14.356 24.725C13.955 24.345 13.938 23.712 14.318 23.311C14.698 22.91 15.33 22.893 15.731 23.272L16.379 23.886C16.543 24.04 16.794 24.036 16.95 23.878L18.793 22.035C19.184 21.644 19.816 21.644 20.207 22.035V22.037ZM25 19C25 19.552 24.553 20 24 20H22C21.447 20 21 19.552 21 19C21 18.448 21.447 18 22 18H24C24.553 18 25 18.448 25 19ZM25 25C25 25.552 24.553 26 24 26H22C21.447 26 21 25.552 21 25C21 24.448 21.447 24 22 24H24C24.553 24 25 24.448 25 25Z" fill="#16A34A"/>
</svg>
