<svg width="138" height="137" viewBox="0 0 138 137" fill="none" xmlns="http://www.w3.org/2000/svg">
<g clip-path="url(#clip0_4345_3612)">
<path d="M159.696 112.591L169.097 116.946C172.376 118.616 173.681 122.633 172.01 125.911L170.196 130.181C168.134 134.237 164.577 136.993 160.566 138.296C139.961 144.991 100.571 126.245 93.3607 104.054C92.0574 100.043 92.1967 95.5445 94.2659 91.4926L96.6536 87.5151C98.324 84.2368 102.341 82.9317 105.619 84.6021L114.668 89.6478C117.946 91.3182 119.251 95.3348 117.581 98.6131L113.762 106.208C122.805 117.034 133.925 122.412 146.839 123.062L150.738 115.508C152.409 112.23 156.425 110.924 159.704 112.595L159.696 112.591ZM45.4851 126.62L51.0329 124.818L22.3716 36.6071C10.3125 43.4388 4.73002 57.8202 9.013 71.0018L30.6893 137.714C33.6172 133.531 37.5995 130.194 42.2386 128.049C43.2687 127.463 44.3589 126.986 45.4851 126.62ZM91.9029 123.805L49.0903 137.716C39.8975 140.703 34.8677 150.574 37.8546 159.767C40.8415 168.96 50.7131 173.99 59.9059 171.003L126.48 149.372C127.678 148.982 128.754 148.406 129.865 147.879C115.36 143.294 101.277 134.535 91.9029 123.805ZM82.2595 107.661C79.9161 100.449 80.4869 92.8232 83.8613 86.2005L86.4849 81.7783C91.0591 73.355 102.337 69.8379 110.917 74.2141L120.342 79.4564C127.536 83.1175 131.157 91.4296 129.501 99.3216L139.793 95.9778L119.964 34.9517C114.987 19.6341 98.5294 11.2485 83.2119 16.2255L33.287 32.4471L62.1286 121.212L84.9357 113.802C83.8755 111.785 82.9355 109.741 82.2595 107.661Z" fill="white" fill-opacity="0.24"/>
</g>
<defs>
<clipPath id="clip0_4345_3612">
<rect width="140" height="140" fill="white" transform="translate(0 43.2627) rotate(-18)"/>
</clipPath>
</defs>
</svg>
